<?xml version="1.0" encoding="UTF-8" standalone="no"?><svg xmlns="http://www.w3.org/2000/svg" xmlns:xlink="http://www.w3.org/1999/xlink" contentScriptType="application/ecmascript" contentStyleType="text/css" height="1483px" preserveAspectRatio="none" style="width:596px;height:1483px;" version="1.1" viewBox="0 0 596 1483" width="596px" zoomAndPan="magnify"><defs><filter height="300%" id="fouzc1qzm8eob" width="300%" x="-1" y="-1"><feGaussianBlur result="blurOut" stdDeviation="2.0"/><feColorMatrix in="blurOut" result="blurOut2" type="matrix" values="0 0 0 0 0 0 0 0 0 0 0 0 0 0 0 0 0 0 .4 0"/><feOffset dx="4.0" dy="4.0" in="blurOut2" result="blurOut3"/><feBlend in="SourceGraphic" in2="blurOut3" mode="normal"/></filter></defs><g><text fill="#000000" font-family="sans-serif" font-size="18" lengthAdjust="spacing" text-decoration="underline" textLength="50" x="266.5" y="18.6855">DC v1</text><text fill="#000000" font-family="sans-serif" font-size="18" lengthAdjust="spacing" textLength="0" x="294" y="41.3262"/><!--MD5=[9a32cd3984fdd08205638aa42968fc5c]
cluster v1--><polygon fill="#FFFFFF" filter="url(#fouzc1qzm8eob)" points="16,184.2813,39,184.2813,46,207.8906,554,207.8906,554,1476.2813,16,1476.2813,16,184.2813" style="stroke:#000000;stroke-width:1.5;"/><line style="stroke:#000000;stroke-width:1.5;" x1="16" x2="46" y1="207.8906" y2="207.8906"/><text fill="#000000" font-family="sans-serif" font-size="14" font-weight="bold" lengthAdjust="spacing" textLength="17" x="20" y="200.8145">v1</text><!--MD5=[535aab4de90d4dfa371a9b40d5438fc3]
cluster javax.swing--><polygon fill="#FFFFFF" filter="url(#fouzc1qzm8eob)" points="340,51.2813,428,51.2813,435,74.8906,446,74.8906,446,151.2813,340,151.2813,340,51.2813" style="stroke:#000000;stroke-width:1.5;"/><line style="stroke:#000000;stroke-width:1.5;" x1="340" x2="435" y1="74.8906" y2="74.8906"/><text fill="#000000" font-family="sans-serif" font-size="14" font-weight="bold" lengthAdjust="spacing" textLength="82" x="344" y="67.8145">javax.swing</text><!--MD5=[cf8a64cebfcae18e336b106dde72b13d]
class v1.Ant--><rect codeLine="6" fill="#FEFECE" filter="url(#fouzc1qzm8eob)" height="89.5078" id="v1.Ant" style="stroke:#A80036;stroke-width:1.5;" width="166" x="32" y="1233.2813"/><ellipse cx="101.75" cy="1249.2813" fill="#A9DCDF" rx="11" ry="11" style="stroke:#A80036;stroke-width:1.0;"/><path d="M103.5,1250.7813 L100.2031,1250.7813 L99.7656,1251.7813 L99.7656,1251.7813 L100.2344,1251.7813 L100.75,1252.4063 L100.75,1252.7813 L100.75,1253.1563 L100.2344,1253.7813 L99.7656,1253.7813 L97.875,1253.7813 L97.2656,1253.7813 L96.75,1253.1563 L96.75,1252.7813 L96.75,1252.4063 L97.2656,1251.7813 L97.875,1251.7813 L100.1875,1245.7813 L99.3125,1245.7813 L98.2656,1245.7813 L97.75,1245.1563 L97.75,1244.7813 L97.75,1244.4063 L98.2656,1243.7813 L99.3125,1243.7813 L102.9844,1243.7813 L105.6719,1251.7813 L106.2344,1251.7813 L106.2344,1251.7813 L106.75,1252.4063 L106.75,1252.7813 L106.75,1253.1563 L106.2344,1253.7813 L105.6719,1253.7813 L103.7813,1253.7813 L103.2656,1253.7813 L102.75,1253.1563 L102.75,1252.7813 L102.75,1252.4063 L103.2656,1251.7813 L103.7813,1251.7813 L103.7813,1251.7813 L103.5,1250.7813 Z M102.9531,1248.7813 L101.75,1245.2031 L100.7188,1248.7813 L102.9531,1248.7813 Z " fill="#000000"/><text fill="#000000" font-family="sans-serif" font-size="12" font-style="italic" lengthAdjust="spacing" textLength="18" x="122.25" y="1254.1914">Ant</text><line style="stroke:#A80036;stroke-width:1.5;" x1="33" x2="197" y1="1265.2813" y2="1265.2813"/><line style="stroke:#A80036;stroke-width:1.5;" x1="33" x2="197" y1="1273.2813" y2="1273.2813"/><ellipse cx="43" cy="1284.2813" fill="#84BE84" rx="3" ry="3" style="stroke:#038048;stroke-width:1.0;"/><text fill="#000000" font-family="sans-serif" font-size="11" lengthAdjust="spacing" textLength="25" x="52" y="1288.7002">Ant()</text><ellipse cx="43" cy="1298.1172" fill="#84BE84" rx="3" ry="3" style="stroke:#038048;stroke-width:1.0;"/><text fill="#000000" font-family="sans-serif" font-size="11" lengthAdjust="spacing" textLength="140" x="52" y="1302.5361">deplacementValide():boolean</text><ellipse cx="43" cy="1311.9531" fill="#84BE84" rx="3" ry="3" style="stroke:#038048;stroke-width:1.0;"/><text fill="#000000" font-family="sans-serif" font-size="11" lengthAdjust="spacing" textLength="97" x="52" y="1316.3721">deplacerVers():void</text><!--MD5=[4932aa29f73af8214b4ce513306baa2c]
class v1.Occupant--><rect codeLine="98" fill="#FEFECE" filter="url(#fouzc1qzm8eob)" height="158.6875" id="v1.Occupant" style="stroke:#A80036;stroke-width:1.5;" width="130" x="89" y="999.7813"/><ellipse cx="124.7" cy="1015.7813" fill="#ADD1B2" rx="11" ry="11" style="stroke:#A80036;stroke-width:1.0;"/><path d="M126.7,1012.2813 Q126.9031,1011.7813 127.1375,1011.5313 Q127.3719,1011.2813 127.6375,1011.2813 Q128.1063,1011.2813 128.4031,1011.5625 Q128.7,1011.8438 128.7,1012.5 L128.7,1014.0625 Q128.7,1014.7188 128.4188,1015 Q128.1375,1015.2813 127.7,1015.2813 Q127.3094,1015.2813 127.0594,1015.1094 Q126.8094,1014.9375 126.7,1014.4844 Q126.6531,1014.1719 126.4813,1014 Q126.1688,1013.6719 125.6063,1013.4844 Q125.0438,1013.2813 124.4813,1013.2813 Q123.7781,1013.2813 123.1844,1013.5625 Q122.6063,1013.8438 122.1531,1014.4688 Q121.7,1015.0938 121.7,1015.9531 L121.7,1016.875 Q121.7,1017.9063 122.5438,1018.5938 Q123.3875,1019.2813 124.8875,1019.2813 Q125.7781,1019.2813 126.4031,1019.0781 Q126.7625,1018.9688 127.1688,1018.6094 Q127.4344,1018.4063 127.575,1018.3438 Q127.7156,1018.2813 127.8875,1018.2813 Q128.2156,1018.2813 128.45,1018.5469 Q128.7,1018.7969 128.7,1019.1563 Q128.7,1019.5 128.3563,1019.9063 Q127.8563,1020.5 127.0594,1020.8281 Q126.0125,1021.2813 124.7313,1021.2813 Q123.2313,1021.2813 122.0281,1020.6875 Q121.0594,1020.2188 120.3719,1019.2031 Q119.7,1018.1875 119.7,1016.9844 L119.7,1015.8906 Q119.7,1014.6406 120.2938,1013.5469 Q120.9031,1012.4531 121.95,1011.875 Q123.0125,1011.2813 124.2,1011.2813 Q124.9188,1011.2813 125.5438,1011.5313 Q126.1688,1011.7813 126.7,1012.2813 Z " fill="#000000"/><text fill="#000000" font-family="sans-serif" font-size="12" lengthAdjust="spacing" textLength="52" x="143.3" y="1020.6914">Occupant</text><line style="stroke:#A80036;stroke-width:1.5;" x1="90" x2="218" y1="1031.7813" y2="1031.7813"/><rect fill="none" height="6" style="stroke:#C82930;stroke-width:1.0;" width="6" x="97" y="1039.7813"/><text fill="#000000" font-family="sans-serif" font-size="11" lengthAdjust="spacing" textLength="26" x="109" y="1047.2002">x : int</text><rect fill="none" height="6" style="stroke:#C82930;stroke-width:1.0;" width="6" x="97" y="1053.6172"/><text fill="#000000" font-family="sans-serif" font-size="11" lengthAdjust="spacing" textLength="26" x="109" y="1061.0361">y : int</text><line style="stroke:#A80036;stroke-width:1.5;" x1="90" x2="218" y1="1067.4531" y2="1067.4531"/><ellipse cx="100" cy="1078.4531" fill="#84BE84" rx="3" ry="3" style="stroke:#038048;stroke-width:1.0;"/><text fill="#000000" font-family="sans-serif" font-size="11" lengthAdjust="spacing" textLength="55" x="109" y="1082.8721">Occupant()</text><ellipse cx="100" cy="1092.2891" fill="#84BE84" rx="3" ry="3" style="stroke:#038048;stroke-width:1.0;"/><text fill="#000000" font-family="sans-serif" font-size="11" lengthAdjust="spacing" textLength="104" x="109" y="1096.708">getGraphe() : Graphe</text><ellipse cx="100" cy="1106.125" fill="#84BE84" rx="3" ry="3" style="stroke:#038048;stroke-width:1.0;"/><text fill="#000000" font-family="sans-serif" font-size="11" lengthAdjust="spacing" textLength="50" x="109" y="1110.5439">getX() : int</text><ellipse cx="100" cy="1119.9609" fill="#84BE84" rx="3" ry="3" style="stroke:#038048;stroke-width:1.0;"/><text fill="#000000" font-family="sans-serif" font-size="11" lengthAdjust="spacing" textLength="51" x="109" y="1124.3799">getY() : int</text><ellipse cx="100" cy="1133.7969" fill="#84BE84" rx="3" ry="3" style="stroke:#038048;stroke-width:1.0;"/><text fill="#000000" font-family="sans-serif" font-size="11" lengthAdjust="spacing" textLength="59" x="109" y="1138.2158">setX() : void</text><ellipse cx="100" cy="1147.6328" fill="#84BE84" rx="3" ry="3" style="stroke:#038048;stroke-width:1.0;"/><text fill="#000000" font-family="sans-serif" font-size="11" lengthAdjust="spacing" textLength="60" x="109" y="1152.0518">setY() : void</text><!--MD5=[9f406e0b2990d5745cccde7c4be2c428]
class v1.AntFacadeController--><rect codeLine="13" fill="#FEFECE" filter="url(#fouzc1qzm8eob)" height="172.5234" id="v1.AntFacadeController" style="stroke:#A80036;stroke-width:1.5;" width="145" x="32.5" y="471.2813"/><ellipse cx="47.5" cy="487.2813" fill="#B4A7E5" rx="11" ry="11" style="stroke:#A80036;stroke-width:1.0;"/><path d="M48.5,484.2813 L48.5,490.2813 L50.5,490.2813 L50.9844,490.2813 L51.5,490.9063 L51.5,491.2813 L51.5,491.6563 L50.9844,492.2813 L50.5,492.2813 L44.5,492.2813 L44.0156,492.2813 L43.5,491.6563 L43.5,491.2813 L43.5,490.9063 L44.0156,490.2813 L44.5,490.2813 L46.5,490.2813 L46.5,484.2813 L44.5,484.2813 L44.0156,484.2813 L43.5,483.6563 L43.5,483.2813 L43.5,482.9063 L44.0156,482.2813 L44.5,482.2813 L50.5,482.2813 L50.9844,482.2813 L51.5,482.9063 L51.5,483.2813 L51.5,483.6563 L50.9844,484.2813 L50.5,484.2813 L48.5,484.2813 Z " fill="#000000"/><text fill="#000000" font-family="sans-serif" font-size="12" font-style="italic" lengthAdjust="spacing" textLength="113" x="61.5" y="492.1914">AntFacadeController</text><line style="stroke:#A80036;stroke-width:1.5;" x1="33.5" x2="176.5" y1="503.2813" y2="503.2813"/><line style="stroke:#A80036;stroke-width:1.5;" x1="33.5" x2="176.5" y1="511.2813" y2="511.2813"/><ellipse cx="43.5" cy="522.2813" fill="#84BE84" rx="3" ry="3" style="stroke:#038048;stroke-width:1.0;"/><text fill="#000000" font-family="sans-serif" font-size="11" font-style="italic" lengthAdjust="spacing" textLength="102" x="52.5" y="526.7002">createColony() : void</text><ellipse cx="43.5" cy="536.1172" fill="#84BE84" rx="3" ry="3" style="stroke:#038048;stroke-width:1.0;"/><text fill="#000000" font-family="sans-serif" font-size="11" font-style="italic" lengthAdjust="spacing" textLength="90" x="52.5" y="540.5361">createGrid() : void</text><ellipse cx="43.5" cy="549.9531" fill="#84BE84" rx="3" ry="3" style="stroke:#038048;stroke-width:1.0;"/><text fill="#000000" font-family="sans-serif" font-size="11" font-style="italic" lengthAdjust="spacing" textLength="109" x="52.5" y="554.3721">createSoldiers() : void</text><ellipse cx="43.5" cy="563.7891" fill="#84BE84" rx="3" ry="3" style="stroke:#038048;stroke-width:1.0;"/><text fill="#000000" font-family="sans-serif" font-size="11" font-style="italic" lengthAdjust="spacing" textLength="111" x="52.5" y="568.208">createWorkers() : void</text><ellipse cx="43.5" cy="577.625" fill="#84BE84" rx="3" ry="3" style="stroke:#038048;stroke-width:1.0;"/><text fill="#000000" font-family="sans-serif" font-size="11" font-style="italic" lengthAdjust="spacing" textLength="78" x="52.5" y="582.0439">play() : BitSet[][]</text><ellipse cx="43.5" cy="591.4609" fill="#84BE84" rx="3" ry="3" style="stroke:#038048;stroke-width:1.0;"/><text fill="#000000" font-family="sans-serif" font-size="11" font-style="italic" lengthAdjust="spacing" textLength="77" x="52.5" y="595.8799">putFood() : void</text><ellipse cx="43.5" cy="605.2969" fill="#84BE84" rx="3" ry="3" style="stroke:#038048;stroke-width:1.0;"/><text fill="#000000" font-family="sans-serif" font-size="11" font-style="italic" lengthAdjust="spacing" textLength="98" x="52.5" y="609.7158">putObstacle() : void</text><ellipse cx="43.5" cy="619.1328" fill="#84BE84" rx="3" ry="3" style="stroke:#038048;stroke-width:1.0;"/><text fill="#000000" font-family="sans-serif" font-size="11" font-style="italic" lengthAdjust="spacing" textLength="87" x="52.5" y="623.5518">setAntFile() : void</text><ellipse cx="43.5" cy="632.9688" fill="#84BE84" rx="3" ry="3" style="stroke:#038048;stroke-width:1.0;"/><text fill="#000000" font-family="sans-serif" font-size="11" font-style="italic" lengthAdjust="spacing" textLength="109" x="52.5" y="637.3877">setParameters() : void</text><!--MD5=[ce1ffa8738775c6459c4c7a45db6c2dc]
class v1.Colony--><rect codeLine="26" fill="#FEFECE" filter="url(#fouzc1qzm8eob)" height="75.6719" id="v1.Colony" style="stroke:#A80036;stroke-width:1.5;" width="106" x="233" y="1240.2813"/><ellipse cx="264.2" cy="1256.2813" fill="#ADD1B2" rx="11" ry="11" style="stroke:#A80036;stroke-width:1.0;"/><path d="M266.2,1252.7813 Q266.4031,1252.2813 266.6375,1252.0313 Q266.8719,1251.7813 267.1375,1251.7813 Q267.6063,1251.7813 267.9031,1252.0625 Q268.2,1252.3438 268.2,1253 L268.2,1254.5625 Q268.2,1255.2188 267.9188,1255.5 Q267.6375,1255.7813 267.2,1255.7813 Q266.8094,1255.7813 266.5594,1255.6094 Q266.3094,1255.4375 266.2,1254.9844 Q266.1531,1254.6719 265.9813,1254.5 Q265.6688,1254.1719 265.1063,1253.9844 Q264.5438,1253.7813 263.9813,1253.7813 Q263.2781,1253.7813 262.6844,1254.0625 Q262.1063,1254.3438 261.6531,1254.9688 Q261.2,1255.5938 261.2,1256.4531 L261.2,1257.375 Q261.2,1258.4063 262.0438,1259.0938 Q262.8875,1259.7813 264.3875,1259.7813 Q265.2781,1259.7813 265.9031,1259.5781 Q266.2625,1259.4688 266.6688,1259.1094 Q266.9344,1258.9063 267.075,1258.8438 Q267.2156,1258.7813 267.3875,1258.7813 Q267.7156,1258.7813 267.95,1259.0469 Q268.2,1259.2969 268.2,1259.6563 Q268.2,1260 267.8563,1260.4063 Q267.3563,1261 266.5594,1261.3281 Q265.5125,1261.7813 264.2313,1261.7813 Q262.7313,1261.7813 261.5281,1261.1875 Q260.5594,1260.7188 259.8719,1259.7031 Q259.2,1258.6875 259.2,1257.4844 L259.2,1256.3906 Q259.2,1255.1406 259.7938,1254.0469 Q260.4031,1252.9531 261.45,1252.375 Q262.5125,1251.7813 263.7,1251.7813 Q264.4188,1251.7813 265.0438,1252.0313 Q265.6688,1252.2813 266.2,1252.7813 Z " fill="#000000"/><text fill="#000000" font-family="sans-serif" font-size="12" lengthAdjust="spacing" textLength="38" x="281.8" y="1261.1914">Colony</text><line style="stroke:#A80036;stroke-width:1.5;" x1="234" x2="338" y1="1272.2813" y2="1272.2813"/><line style="stroke:#A80036;stroke-width:1.5;" x1="234" x2="338" y1="1280.2813" y2="1280.2813"/><ellipse cx="244" cy="1291.2813" fill="#84BE84" rx="3" ry="3" style="stroke:#038048;stroke-width:1.0;"/><text fill="#000000" font-family="sans-serif" font-size="11" lengthAdjust="spacing" textLength="41" x="253" y="1295.7002">Colony()</text><ellipse cx="244" cy="1305.1172" fill="#84BE84" rx="3" ry="3" style="stroke:#038048;stroke-width:1.0;"/><text fill="#000000" font-family="sans-serif" font-size="11" lengthAdjust="spacing" textLength="80" x="253" y="1309.5361">getReine():Reine</text><!--MD5=[88aac24387f4d5e208e5317e327a9bc8]
class v1.Display--><rect codeLine="33" fill="#FEFECE" filter="url(#fouzc1qzm8eob)" height="117.1797" id="v1.Display" style="stroke:#A80036;stroke-width:1.5;" width="96" x="345" y="248.2813"/><ellipse cx="370.35" cy="264.2813" fill="#ADD1B2" rx="11" ry="11" style="stroke:#A80036;stroke-width:1.0;"/><path d="M372.35,260.7813 Q372.5531,260.2813 372.7875,260.0313 Q373.0219,259.7813 373.2875,259.7813 Q373.7563,259.7813 374.0531,260.0625 Q374.35,260.3438 374.35,261 L374.35,262.5625 Q374.35,263.2188 374.0688,263.5 Q373.7875,263.7813 373.35,263.7813 Q372.9594,263.7813 372.7094,263.6094 Q372.4594,263.4375 372.35,262.9844 Q372.3031,262.6719 372.1313,262.5 Q371.8188,262.1719 371.2563,261.9844 Q370.6938,261.7813 370.1313,261.7813 Q369.4281,261.7813 368.8344,262.0625 Q368.2563,262.3438 367.8031,262.9688 Q367.35,263.5938 367.35,264.4531 L367.35,265.375 Q367.35,266.4063 368.1938,267.0938 Q369.0375,267.7813 370.5375,267.7813 Q371.4281,267.7813 372.0531,267.5781 Q372.4125,267.4688 372.8188,267.1094 Q373.0844,266.9063 373.225,266.8438 Q373.3656,266.7813 373.5375,266.7813 Q373.8656,266.7813 374.1,267.0469 Q374.35,267.2969 374.35,267.6563 Q374.35,268 374.0063,268.4063 Q373.5063,269 372.7094,269.3281 Q371.6625,269.7813 370.3813,269.7813 Q368.8813,269.7813 367.6781,269.1875 Q366.7094,268.7188 366.0219,267.7031 Q365.35,266.6875 365.35,265.4844 L365.35,264.3906 Q365.35,263.1406 365.9438,262.0469 Q366.5531,260.9531 367.6,260.375 Q368.6625,259.7813 369.85,259.7813 Q370.5688,259.7813 371.1938,260.0313 Q371.8188,260.2813 372.35,260.7813 Z " fill="#000000"/><text fill="#000000" font-family="sans-serif" font-size="12" lengthAdjust="spacing" textLength="41" x="386.65" y="269.1914">Display</text><line style="stroke:#A80036;stroke-width:1.5;" x1="346" x2="440" y1="280.2813" y2="280.2813"/><rect fill="none" height="6" style="stroke:#C82930;stroke-width:1.0;" width="6" x="353" y="288.2813"/><text fill="#000000" font-family="sans-serif" font-size="11" lengthAdjust="spacing" textLength="57" x="365" y="295.7002">cellSize : int</text><rect fill="none" height="6" style="stroke:#C82930;stroke-width:1.0;" width="6" x="353" y="302.1172"/><text fill="#000000" font-family="sans-serif" font-size="11" lengthAdjust="spacing" textLength="49" x="365" y="309.5361">height : int</text><rect fill="none" height="6" style="stroke:#C82930;stroke-width:1.0;" width="6" x="353" y="315.9531"/><text fill="#000000" font-family="sans-serif" font-size="11" lengthAdjust="spacing" textLength="47" x="365" y="323.3721">width : int</text><line style="stroke:#A80036;stroke-width:1.5;" x1="346" x2="440" y1="329.7891" y2="329.7891"/><ellipse cx="356" cy="340.7891" fill="#84BE84" rx="3" ry="3" style="stroke:#038048;stroke-width:1.0;"/><text fill="#000000" font-family="sans-serif" font-size="11" lengthAdjust="spacing" textLength="43" x="365" y="345.208">Display()</text><ellipse cx="356" cy="354.625" fill="#84BE84" rx="3" ry="3" style="stroke:#038048;stroke-width:1.0;"/><text fill="#000000" font-family="sans-serif" font-size="11" lengthAdjust="spacing" textLength="70" x="365" y="359.0439">update() : void</text><!--MD5=[c699ae810ed5db59aca4a24d24dadcc9]
class v1.FourmiSoldatTest--><rect codeLine="42" fill="#FEFECE" filter="url(#fouzc1qzm8eob)" height="172.5234" id="v1.FourmiSoldatTest" style="stroke:#A80036;stroke-width:1.5;" width="139" x="35.5" y="220.2813"/><ellipse cx="54.55" cy="236.2813" fill="#ADD1B2" rx="11" ry="11" style="stroke:#A80036;stroke-width:1.0;"/><path d="M56.55,232.7813 Q56.7531,232.2813 56.9875,232.0313 Q57.2219,231.7813 57.4875,231.7813 Q57.9563,231.7813 58.2531,232.0625 Q58.55,232.3438 58.55,233 L58.55,234.5625 Q58.55,235.2188 58.2688,235.5 Q57.9875,235.7813 57.55,235.7813 Q57.1594,235.7813 56.9094,235.6094 Q56.6594,235.4375 56.55,234.9844 Q56.5031,234.6719 56.3313,234.5 Q56.0188,234.1719 55.4563,233.9844 Q54.8938,233.7813 54.3313,233.7813 Q53.6281,233.7813 53.0344,234.0625 Q52.4563,234.3438 52.0031,234.9688 Q51.55,235.5938 51.55,236.4531 L51.55,237.375 Q51.55,238.4063 52.3938,239.0938 Q53.2375,239.7813 54.7375,239.7813 Q55.6281,239.7813 56.2531,239.5781 Q56.6125,239.4688 57.0188,239.1094 Q57.2844,238.9063 57.425,238.8438 Q57.5656,238.7813 57.7375,238.7813 Q58.0656,238.7813 58.3,239.0469 Q58.55,239.2969 58.55,239.6563 Q58.55,240 58.2063,240.4063 Q57.7063,241 56.9094,241.3281 Q55.8625,241.7813 54.5813,241.7813 Q53.0813,241.7813 51.8781,241.1875 Q50.9094,240.7188 50.2219,239.7031 Q49.55,238.6875 49.55,237.4844 L49.55,236.3906 Q49.55,235.1406 50.1438,234.0469 Q50.7531,232.9531 51.8,232.375 Q52.8625,231.7813 54.05,231.7813 Q54.7688,231.7813 55.3938,232.0313 Q56.0188,232.2813 56.55,232.7813 Z " fill="#000000"/><text fill="#000000" font-family="sans-serif" font-size="12" lengthAdjust="spacing" textLength="98" x="69.45" y="241.1914">FourmiSoldatTest</text><line style="stroke:#A80036;stroke-width:1.5;" x1="36.5" x2="173.5" y1="252.2813" y2="252.2813"/><polygon fill="none" points="46.5,259.2813,42.5,265.2813,50.5,265.2813" style="stroke:#1963A0;stroke-width:1.0;"/><text fill="#000000" font-family="sans-serif" font-size="11" lengthAdjust="spacing" text-decoration="underline" textLength="56" x="55.5" y="267.7002">HEIGHT : int</text><polygon fill="none" points="46.5,273.1172,42.5,279.1172,50.5,279.1172" style="stroke:#1963A0;stroke-width:1.0;"/><text fill="#000000" font-family="sans-serif" font-size="11" lengthAdjust="spacing" text-decoration="underline" textLength="52" x="55.5" y="281.5361">WIDTH : int</text><line style="stroke:#A80036;stroke-width:1.5;" x1="36.5" x2="173.5" y1="287.9531" y2="287.9531"/><polygon fill="#4177AF" points="46.5,294.9531,42.5,300.9531,50.5,300.9531" style="stroke:#1963A0;stroke-width:1.0;"/><text fill="#000000" font-family="sans-serif" font-size="11" lengthAdjust="spacing" textLength="65" x="55.5" y="303.3721">setUp() : void</text><polygon fill="#4177AF" points="46.5,308.7891,42.5,314.7891,50.5,314.7891" style="stroke:#1963A0;stroke-width:1.0;"/><text fill="#000000" font-family="sans-serif" font-size="11" lengthAdjust="spacing" textLength="61" x="55.5" y="317.208">test0() : void</text><polygon fill="#4177AF" points="46.5,322.625,42.5,328.625,50.5,328.625" style="stroke:#1963A0;stroke-width:1.0;"/><text fill="#000000" font-family="sans-serif" font-size="11" lengthAdjust="spacing" textLength="61" x="55.5" y="331.0439">test1() : void</text><polygon fill="#4177AF" points="46.5,336.4609,42.5,342.4609,50.5,342.4609" style="stroke:#1963A0;stroke-width:1.0;"/><text fill="#000000" font-family="sans-serif" font-size="11" lengthAdjust="spacing" textLength="61" x="55.5" y="344.8799">test2() : void</text><polygon fill="#4177AF" points="46.5,350.2969,42.5,356.2969,50.5,356.2969" style="stroke:#1963A0;stroke-width:1.0;"/><text fill="#000000" font-family="sans-serif" font-size="11" lengthAdjust="spacing" textLength="61" x="55.5" y="358.7158">test3() : void</text><polygon fill="#4177AF" points="46.5,364.1328,42.5,370.1328,50.5,370.1328" style="stroke:#1963A0;stroke-width:1.0;"/><text fill="#000000" font-family="sans-serif" font-size="11" lengthAdjust="spacing" textLength="61" x="55.5" y="372.5518">test4() : void</text><polygon fill="#4177AF" points="46.5,377.9688,42.5,383.9688,50.5,383.9688" style="stroke:#1963A0;stroke-width:1.0;"/><text fill="#000000" font-family="sans-serif" font-size="11" lengthAdjust="spacing" textLength="113" x="55.5" y="386.3877">testPutObstacle() : void</text><!--MD5=[166749f3ddfabd2c2d7f16024634eb91]
class v1.GameController--><rect codeLine="55" fill="#FEFECE" filter="url(#fouzc1qzm8eob)" height="186.3594" id="v1.GameController" style="stroke:#A80036;stroke-width:1.5;" width="135" x="341.5" y="722.2813"/><ellipse cx="363.25" cy="738.2813" fill="#ADD1B2" rx="11" ry="11" style="stroke:#A80036;stroke-width:1.0;"/><path d="M365.25,734.7813 Q365.4531,734.2813 365.6875,734.0313 Q365.9219,733.7813 366.1875,733.7813 Q366.6563,733.7813 366.9531,734.0625 Q367.25,734.3438 367.25,735 L367.25,736.5625 Q367.25,737.2188 366.9688,737.5 Q366.6875,737.7813 366.25,737.7813 Q365.8594,737.7813 365.6094,737.6094 Q365.3594,737.4375 365.25,736.9844 Q365.2031,736.6719 365.0313,736.5 Q364.7188,736.1719 364.1563,735.9844 Q363.5938,735.7813 363.0313,735.7813 Q362.3281,735.7813 361.7344,736.0625 Q361.1563,736.3438 360.7031,736.9688 Q360.25,737.5938 360.25,738.4531 L360.25,739.375 Q360.25,740.4063 361.0938,741.0938 Q361.9375,741.7813 363.4375,741.7813 Q364.3281,741.7813 364.9531,741.5781 Q365.3125,741.4688 365.7188,741.1094 Q365.9844,740.9063 366.125,740.8438 Q366.2656,740.7813 366.4375,740.7813 Q366.7656,740.7813 367,741.0469 Q367.25,741.2969 367.25,741.6563 Q367.25,742 366.9063,742.4063 Q366.4063,743 365.6094,743.3281 Q364.5625,743.7813 363.2813,743.7813 Q361.7813,743.7813 360.5781,743.1875 Q359.6094,742.7188 358.9219,741.7031 Q358.25,740.6875 358.25,739.4844 L358.25,738.3906 Q358.25,737.1406 358.8438,736.0469 Q359.4531,734.9531 360.5,734.375 Q361.5625,733.7813 362.75,733.7813 Q363.4688,733.7813 364.0938,734.0313 Q364.7188,734.2813 365.25,734.7813 Z " fill="#000000"/><text fill="#000000" font-family="sans-serif" font-size="12" lengthAdjust="spacing" textLength="88" x="378.75" y="743.1914">GameController</text><line style="stroke:#A80036;stroke-width:1.5;" x1="342.5" x2="475.5" y1="754.2813" y2="754.2813"/><line style="stroke:#A80036;stroke-width:1.5;" x1="342.5" x2="475.5" y1="762.2813" y2="762.2813"/><ellipse cx="352.5" cy="773.2813" fill="#84BE84" rx="3" ry="3" style="stroke:#038048;stroke-width:1.0;"/><text fill="#000000" font-family="sans-serif" font-size="11" lengthAdjust="spacing" textLength="101" x="361.5" y="777.7002">createColony() : void</text><ellipse cx="352.5" cy="787.1172" fill="#84BE84" rx="3" ry="3" style="stroke:#038048;stroke-width:1.0;"/><text fill="#000000" font-family="sans-serif" font-size="11" lengthAdjust="spacing" textLength="88" x="361.5" y="791.5361">createGrid() : void</text><ellipse cx="352.5" cy="800.9531" fill="#84BE84" rx="3" ry="3" style="stroke:#038048;stroke-width:1.0;"/><text fill="#000000" font-family="sans-serif" font-size="11" lengthAdjust="spacing" textLength="107" x="361.5" y="805.3721">createSoldiers() : void</text><ellipse cx="352.5" cy="814.7891" fill="#84BE84" rx="3" ry="3" style="stroke:#038048;stroke-width:1.0;"/><text fill="#000000" font-family="sans-serif" font-size="11" lengthAdjust="spacing" textLength="109" x="361.5" y="819.208">createWorkers() : void</text><ellipse cx="352.5" cy="828.625" fill="#84BE84" rx="3" ry="3" style="stroke:#038048;stroke-width:1.0;"/><text fill="#000000" font-family="sans-serif" font-size="11" lengthAdjust="spacing" textLength="57" x="361.5" y="833.0439">play() : void</text><ellipse cx="352.5" cy="842.4609" fill="#84BE84" rx="3" ry="3" style="stroke:#038048;stroke-width:1.0;"/><text fill="#000000" font-family="sans-serif" font-size="11" lengthAdjust="spacing" textLength="76" x="361.5" y="846.8799">putFood() : void</text><ellipse cx="352.5" cy="856.2969" fill="#84BE84" rx="3" ry="3" style="stroke:#038048;stroke-width:1.0;"/><text fill="#000000" font-family="sans-serif" font-size="11" lengthAdjust="spacing" textLength="95" x="361.5" y="860.7158">putObstacle() : void</text><ellipse cx="352.5" cy="870.1328" fill="#84BE84" rx="3" ry="3" style="stroke:#038048;stroke-width:1.0;"/><text fill="#000000" font-family="sans-serif" font-size="11" lengthAdjust="spacing" textLength="85" x="361.5" y="874.5518">setAntFile() : void</text><ellipse cx="352.5" cy="883.9688" fill="#84BE84" rx="3" ry="3" style="stroke:#038048;stroke-width:1.0;"/><text fill="#000000" font-family="sans-serif" font-size="11" lengthAdjust="spacing" textLength="107" x="361.5" y="888.3877">setParameters() : void</text><rect fill="#F24D5C" height="6" style="stroke:#C82930;stroke-width:1.0;" width="6" x="349.5" y="894.8047"/><text fill="#000000" font-family="sans-serif" font-size="11" lengthAdjust="spacing" textLength="101" x="361.5" y="902.2236">refreshBitSet() : void</text><!--MD5=[58029e8fe1ef0bdf75d4ed8cb3b6bdc0]
class v1.Graphe--><rect codeLine="69" fill="#FEFECE" filter="url(#fouzc1qzm8eob)" height="186.3594" id="v1.Graphe" style="stroke:#A80036;stroke-width:1.5;" width="217" x="310.5" y="986.2813"/><ellipse cx="394.25" cy="1002.2813" fill="#ADD1B2" rx="11" ry="11" style="stroke:#A80036;stroke-width:1.0;"/><path d="M396.25,998.7813 Q396.4531,998.2813 396.6875,998.0313 Q396.9219,997.7813 397.1875,997.7813 Q397.6563,997.7813 397.9531,998.0625 Q398.25,998.3438 398.25,999 L398.25,1000.5625 Q398.25,1001.2188 397.9688,1001.5 Q397.6875,1001.7813 397.25,1001.7813 Q396.8594,1001.7813 396.6094,1001.6094 Q396.3594,1001.4375 396.25,1000.9844 Q396.2031,1000.6719 396.0313,1000.5 Q395.7188,1000.1719 395.1563,999.9844 Q394.5938,999.7813 394.0313,999.7813 Q393.3281,999.7813 392.7344,1000.0625 Q392.1563,1000.3438 391.7031,1000.9688 Q391.25,1001.5938 391.25,1002.4531 L391.25,1003.375 Q391.25,1004.4063 392.0938,1005.0938 Q392.9375,1005.7813 394.4375,1005.7813 Q395.3281,1005.7813 395.9531,1005.5781 Q396.3125,1005.4688 396.7188,1005.1094 Q396.9844,1004.9063 397.125,1004.8438 Q397.2656,1004.7813 397.4375,1004.7813 Q397.7656,1004.7813 398,1005.0469 Q398.25,1005.2969 398.25,1005.6563 Q398.25,1006 397.9063,1006.4063 Q397.4063,1007 396.6094,1007.3281 Q395.5625,1007.7813 394.2813,1007.7813 Q392.7813,1007.7813 391.5781,1007.1875 Q390.6094,1006.7188 389.9219,1005.7031 Q389.25,1004.6875 389.25,1003.4844 L389.25,1002.3906 Q389.25,1001.1406 389.8438,1000.0469 Q390.4531,998.9531 391.5,998.375 Q392.5625,997.7813 393.75,997.7813 Q394.4688,997.7813 395.0938,998.0313 Q395.7188,998.2813 396.25,998.7813 Z " fill="#000000"/><text fill="#000000" font-family="sans-serif" font-size="12" lengthAdjust="spacing" textLength="41" x="414.75" y="1007.1914">Graphe</text><line style="stroke:#A80036;stroke-width:1.5;" x1="311.5" x2="526.5" y1="1018.2813" y2="1018.2813"/><rect fill="none" height="6" style="stroke:#C82930;stroke-width:1.0;" width="6" x="318.5" y="1026.2813"/><text fill="#000000" font-family="sans-serif" font-size="11" lengthAdjust="spacing" textLength="72" x="330.5" y="1033.7002">listAnts : Ant[*]</text><rect fill="none" height="6" style="stroke:#C82930;stroke-width:1.0;" width="6" x="318.5" y="1040.1172"/><text fill="#000000" font-family="sans-serif" font-size="11" lengthAdjust="spacing" textLength="101" x="330.5" y="1047.5361">tabGrid : Occupant[*]</text><line style="stroke:#A80036;stroke-width:1.5;" x1="311.5" x2="526.5" y1="1053.9531" y2="1053.9531"/><ellipse cx="321.5" cy="1064.9531" fill="#84BE84" rx="3" ry="3" style="stroke:#038048;stroke-width:1.0;"/><text fill="#000000" font-family="sans-serif" font-size="11" lengthAdjust="spacing" textLength="44" x="330.5" y="1069.3721">Graphe()</text><ellipse cx="321.5" cy="1078.7891" fill="#84BE84" rx="3" ry="3" style="stroke:#038048;stroke-width:1.0;"/><text fill="#000000" font-family="sans-serif" font-size="11" lengthAdjust="spacing" textLength="191" x="330.5" y="1083.208">contientFourmiliere(x:int, y:int) : boolean</text><ellipse cx="321.5" cy="1092.625" fill="#84BE84" rx="3" ry="3" style="stroke:#038048;stroke-width:1.0;"/><text fill="#000000" font-family="sans-serif" font-size="11" lengthAdjust="spacing" textLength="182" x="330.5" y="1097.0439">contientObstacle(x:int, y:int) : boolean</text><ellipse cx="321.5" cy="1106.4609" fill="#84BE84" rx="3" ry="3" style="stroke:#038048;stroke-width:1.0;"/><text fill="#000000" font-family="sans-serif" font-size="11" lengthAdjust="spacing" textLength="169" x="330.5" y="1110.8799">contientSoldat(x:int, y:int) : boolean</text><ellipse cx="321.5" cy="1120.2969" fill="#84BE84" rx="3" ry="3" style="stroke:#038048;stroke-width:1.0;"/><text fill="#000000" font-family="sans-serif" font-size="11" lengthAdjust="spacing" textLength="117" x="330.5" y="1124.7158">getFourmiliere() : Colony</text><ellipse cx="321.5" cy="1134.1328" fill="#84BE84" rx="3" ry="3" style="stroke:#038048;stroke-width:1.0;"/><text fill="#000000" font-family="sans-serif" font-size="11" lengthAdjust="spacing" textLength="114" x="330.5" y="1138.5518">getListFourmis() : Ant[*]</text><ellipse cx="321.5" cy="1147.9688" fill="#84BE84" rx="3" ry="3" style="stroke:#038048;stroke-width:1.0;"/><text fill="#000000" font-family="sans-serif" font-size="11" lengthAdjust="spacing" textLength="127" x="330.5" y="1152.3877">getTabGrid() : Occupant[*]</text><rect fill="#F24D5C" height="6" style="stroke:#C82930;stroke-width:1.0;" width="6" x="318.5" y="1158.8047"/><text fill="#000000" font-family="sans-serif" font-size="11" lengthAdjust="spacing" textLength="47" x="330.5" y="1166.2236">fill() : void</text><!--MD5=[9c8694d8c4d0eb90d3ba45abfdc774e4]
class v1.Main--><rect codeLine="83" fill="#FEFECE" filter="url(#fouzc1qzm8eob)" height="61.8359" id="v1.Main" style="stroke:#A80036;stroke-width:1.5;" width="85" x="212.5" y="526.7813"/><ellipse cx="239.65" cy="542.7813" fill="#ADD1B2" rx="11" ry="11" style="stroke:#A80036;stroke-width:1.0;"/><path d="M241.65,539.2813 Q241.8531,538.7813 242.0875,538.5313 Q242.3219,538.2813 242.5875,538.2813 Q243.0563,538.2813 243.3531,538.5625 Q243.65,538.8438 243.65,539.5 L243.65,541.0625 Q243.65,541.7188 243.3688,542 Q243.0875,542.2813 242.65,542.2813 Q242.2594,542.2813 242.0094,542.1094 Q241.7594,541.9375 241.65,541.4844 Q241.6031,541.1719 241.4313,541 Q241.1188,540.6719 240.5563,540.4844 Q239.9938,540.2813 239.4313,540.2813 Q238.7281,540.2813 238.1344,540.5625 Q237.5563,540.8438 237.1031,541.4688 Q236.65,542.0938 236.65,542.9531 L236.65,543.875 Q236.65,544.9063 237.4938,545.5938 Q238.3375,546.2813 239.8375,546.2813 Q240.7281,546.2813 241.3531,546.0781 Q241.7125,545.9688 242.1188,545.6094 Q242.3844,545.4063 242.525,545.3438 Q242.6656,545.2813 242.8375,545.2813 Q243.1656,545.2813 243.4,545.5469 Q243.65,545.7969 243.65,546.1563 Q243.65,546.5 243.3063,546.9063 Q242.8063,547.5 242.0094,547.8281 Q240.9625,548.2813 239.6813,548.2813 Q238.1813,548.2813 236.9781,547.6875 Q236.0094,547.2188 235.3219,546.2031 Q234.65,545.1875 234.65,543.9844 L234.65,542.8906 Q234.65,541.6406 235.2438,540.5469 Q235.8531,539.4531 236.9,538.875 Q237.9625,538.2813 239.15,538.2813 Q239.8688,538.2813 240.4938,538.5313 Q241.1188,538.7813 241.65,539.2813 Z " fill="#000000"/><text fill="#000000" font-family="sans-serif" font-size="12" lengthAdjust="spacing" textLength="26" x="256.35" y="547.6914">Main</text><line style="stroke:#A80036;stroke-width:1.5;" x1="213.5" x2="296.5" y1="558.7813" y2="558.7813"/><line style="stroke:#A80036;stroke-width:1.5;" x1="213.5" x2="296.5" y1="566.7813" y2="566.7813"/><ellipse cx="223.5" cy="577.7813" fill="#84BE84" rx="3" ry="3" style="stroke:#038048;stroke-width:1.0;"/><text fill="#000000" font-family="sans-serif" font-size="11" lengthAdjust="spacing" text-decoration="underline" textLength="59" x="232.5" y="582.2002">main() : void</text><!--MD5=[024e12c7a7ffbcefacc2dcb845c2f5d7]
class v1.MyOwnTest--><rect codeLine="88" fill="#FEFECE" filter="url(#fouzc1qzm8eob)" height="61.8359" id="v1.MyOwnTest" style="stroke:#A80036;stroke-width:1.5;" width="95" x="442.5" y="526.7813"/><ellipse cx="457.5" cy="542.7813" fill="#ADD1B2" rx="11" ry="11" style="stroke:#A80036;stroke-width:1.0;"/><path d="M459.5,539.2813 Q459.7031,538.7813 459.9375,538.5313 Q460.1719,538.2813 460.4375,538.2813 Q460.9063,538.2813 461.2031,538.5625 Q461.5,538.8438 461.5,539.5 L461.5,541.0625 Q461.5,541.7188 461.2188,542 Q460.9375,542.2813 460.5,542.2813 Q460.1094,542.2813 459.8594,542.1094 Q459.6094,541.9375 459.5,541.4844 Q459.4531,541.1719 459.2813,541 Q458.9688,540.6719 458.4063,540.4844 Q457.8438,540.2813 457.2813,540.2813 Q456.5781,540.2813 455.9844,540.5625 Q455.4063,540.8438 454.9531,541.4688 Q454.5,542.0938 454.5,542.9531 L454.5,543.875 Q454.5,544.9063 455.3438,545.5938 Q456.1875,546.2813 457.6875,546.2813 Q458.5781,546.2813 459.2031,546.0781 Q459.5625,545.9688 459.9688,545.6094 Q460.2344,545.4063 460.375,545.3438 Q460.5156,545.2813 460.6875,545.2813 Q461.0156,545.2813 461.25,545.5469 Q461.5,545.7969 461.5,546.1563 Q461.5,546.5 461.1563,546.9063 Q460.6563,547.5 459.8594,547.8281 Q458.8125,548.2813 457.5313,548.2813 Q456.0313,548.2813 454.8281,547.6875 Q453.8594,547.2188 453.1719,546.2031 Q452.5,545.1875 452.5,543.9844 L452.5,542.8906 Q452.5,541.6406 453.0938,540.5469 Q453.7031,539.4531 454.75,538.875 Q455.8125,538.2813 457,538.2813 Q457.7188,538.2813 458.3438,538.5313 Q458.9688,538.7813 459.5,539.2813 Z " fill="#000000"/><text fill="#000000" font-family="sans-serif" font-size="12" lengthAdjust="spacing" textLength="63" x="471.5" y="547.6914">MyOwnTest</text><line style="stroke:#A80036;stroke-width:1.5;" x1="443.5" x2="536.5" y1="558.7813" y2="558.7813"/><line style="stroke:#A80036;stroke-width:1.5;" x1="443.5" x2="536.5" y1="566.7813" y2="566.7813"/><polygon fill="#4177AF" points="453.5,573.7813,449.5,579.7813,457.5,579.7813" style="stroke:#1963A0;stroke-width:1.0;"/><text fill="#000000" font-family="sans-serif" font-size="11" lengthAdjust="spacing" textLength="53" x="462.5" y="582.2002">run() : void</text><!--MD5=[583f31fb19c36a71f2ad9f7df3724e3d]
class v1.Obstacle--><rect codeLine="93" fill="#FEFECE" filter="url(#fouzc1qzm8eob)" height="61.8359" id="v1.Obstacle" style="stroke:#A80036;stroke-width:1.5;" width="81" x="374.5" y="1247.2813"/><ellipse cx="389.5" cy="1263.2813" fill="#ADD1B2" rx="11" ry="11" style="stroke:#A80036;stroke-width:1.0;"/><path d="M391.5,1259.7813 Q391.7031,1259.2813 391.9375,1259.0313 Q392.1719,1258.7813 392.4375,1258.7813 Q392.9063,1258.7813 393.2031,1259.0625 Q393.5,1259.3438 393.5,1260 L393.5,1261.5625 Q393.5,1262.2188 393.2188,1262.5 Q392.9375,1262.7813 392.5,1262.7813 Q392.1094,1262.7813 391.8594,1262.6094 Q391.6094,1262.4375 391.5,1261.9844 Q391.4531,1261.6719 391.2813,1261.5 Q390.9688,1261.1719 390.4063,1260.9844 Q389.8438,1260.7813 389.2813,1260.7813 Q388.5781,1260.7813 387.9844,1261.0625 Q387.4063,1261.3438 386.9531,1261.9688 Q386.5,1262.5938 386.5,1263.4531 L386.5,1264.375 Q386.5,1265.4063 387.3438,1266.0938 Q388.1875,1266.7813 389.6875,1266.7813 Q390.5781,1266.7813 391.2031,1266.5781 Q391.5625,1266.4688 391.9688,1266.1094 Q392.2344,1265.9063 392.375,1265.8438 Q392.5156,1265.7813 392.6875,1265.7813 Q393.0156,1265.7813 393.25,1266.0469 Q393.5,1266.2969 393.5,1266.6563 Q393.5,1267 393.1563,1267.4063 Q392.6563,1268 391.8594,1268.3281 Q390.8125,1268.7813 389.5313,1268.7813 Q388.0313,1268.7813 386.8281,1268.1875 Q385.8594,1267.7188 385.1719,1266.7031 Q384.5,1265.6875 384.5,1264.4844 L384.5,1263.3906 Q384.5,1262.1406 385.0938,1261.0469 Q385.7031,1259.9531 386.75,1259.375 Q387.8125,1258.7813 389,1258.7813 Q389.7188,1258.7813 390.3438,1259.0313 Q390.9688,1259.2813 391.5,1259.7813 Z " fill="#000000"/><text fill="#000000" font-family="sans-serif" font-size="12" lengthAdjust="spacing" textLength="49" x="403.5" y="1268.1914">Obstacle</text><line style="stroke:#A80036;stroke-width:1.5;" x1="375.5" x2="454.5" y1="1279.2813" y2="1279.2813"/><line style="stroke:#A80036;stroke-width:1.5;" x1="375.5" x2="454.5" y1="1287.2813" y2="1287.2813"/><ellipse cx="385.5" cy="1298.2813" fill="#84BE84" rx="3" ry="3" style="stroke:#038048;stroke-width:1.0;"/><text fill="#000000" font-family="sans-serif" font-size="11" lengthAdjust="spacing" textLength="51" x="394.5" y="1302.7002">Obstacle()</text><!--MD5=[ddfadeb4830795a0ef2af81eda2ab610]
class v1.Queen--><rect codeLine="110" fill="#FEFECE" filter="url(#fouzc1qzm8eob)" height="75.6719" id="v1.Queen" style="stroke:#A80036;stroke-width:1.5;" width="113" x="41.5" y="1384.2813"/><ellipse cx="76.3" cy="1400.2813" fill="#ADD1B2" rx="11" ry="11" style="stroke:#A80036;stroke-width:1.0;"/><path d="M78.3,1396.7813 Q78.5031,1396.2813 78.7375,1396.0313 Q78.9719,1395.7813 79.2375,1395.7813 Q79.7063,1395.7813 80.0031,1396.0625 Q80.3,1396.3438 80.3,1397 L80.3,1398.5625 Q80.3,1399.2188 80.0188,1399.5 Q79.7375,1399.7813 79.3,1399.7813 Q78.9094,1399.7813 78.6594,1399.6094 Q78.4094,1399.4375 78.3,1398.9844 Q78.2531,1398.6719 78.0813,1398.5 Q77.7688,1398.1719 77.2063,1397.9844 Q76.6438,1397.7813 76.0813,1397.7813 Q75.3781,1397.7813 74.7844,1398.0625 Q74.2063,1398.3438 73.7531,1398.9688 Q73.3,1399.5938 73.3,1400.4531 L73.3,1401.375 Q73.3,1402.4063 74.1438,1403.0938 Q74.9875,1403.7813 76.4875,1403.7813 Q77.3781,1403.7813 78.0031,1403.5781 Q78.3625,1403.4688 78.7688,1403.1094 Q79.0344,1402.9063 79.175,1402.8438 Q79.3156,1402.7813 79.4875,1402.7813 Q79.8156,1402.7813 80.05,1403.0469 Q80.3,1403.2969 80.3,1403.6563 Q80.3,1404 79.9563,1404.4063 Q79.4563,1405 78.6594,1405.3281 Q77.6125,1405.7813 76.3313,1405.7813 Q74.8313,1405.7813 73.6281,1405.1875 Q72.6594,1404.7188 71.9719,1403.7031 Q71.3,1402.6875 71.3,1401.4844 L71.3,1400.3906 Q71.3,1399.1406 71.8938,1398.0469 Q72.5031,1396.9531 73.55,1396.375 Q74.6125,1395.7813 75.8,1395.7813 Q76.5188,1395.7813 77.1438,1396.0313 Q77.7688,1396.2813 78.3,1396.7813 Z " fill="#000000"/><text fill="#000000" font-family="sans-serif" font-size="12" lengthAdjust="spacing" textLength="37" x="94.7" y="1405.1914">Queen</text><line style="stroke:#A80036;stroke-width:1.5;" x1="42.5" x2="153.5" y1="1416.2813" y2="1416.2813"/><line style="stroke:#A80036;stroke-width:1.5;" x1="42.5" x2="153.5" y1="1424.2813" y2="1424.2813"/><ellipse cx="52.5" cy="1435.2813" fill="#84BE84" rx="3" ry="3" style="stroke:#038048;stroke-width:1.0;"/><text fill="#000000" font-family="sans-serif" font-size="11" lengthAdjust="spacing" textLength="40" x="61.5" y="1439.7002">Queen()</text><ellipse cx="52.5" cy="1449.1172" fill="#84BE84" rx="3" ry="3" style="stroke:#038048;stroke-width:1.0;"/><text fill="#000000" font-family="sans-serif" font-size="11" lengthAdjust="spacing" textLength="87" x="61.5" y="1453.5361">donnerVie() : void</text><!--MD5=[e4e2585b983b09ec68befcc1ab5f38b3]
class v1.Soldier--><rect codeLine="116" fill="#FEFECE" filter="url(#fouzc1qzm8eob)" height="75.6719" id="v1.Soldier" style="stroke:#A80036;stroke-width:1.5;" width="159" x="189.5" y="1384.2813"/><ellipse cx="245.25" cy="1400.2813" fill="#ADD1B2" rx="11" ry="11" style="stroke:#A80036;stroke-width:1.0;"/><path d="M247.25,1396.7813 Q247.4531,1396.2813 247.6875,1396.0313 Q247.9219,1395.7813 248.1875,1395.7813 Q248.6563,1395.7813 248.9531,1396.0625 Q249.25,1396.3438 249.25,1397 L249.25,1398.5625 Q249.25,1399.2188 248.9688,1399.5 Q248.6875,1399.7813 248.25,1399.7813 Q247.8594,1399.7813 247.6094,1399.6094 Q247.3594,1399.4375 247.25,1398.9844 Q247.2031,1398.6719 247.0313,1398.5 Q246.7188,1398.1719 246.1563,1397.9844 Q245.5938,1397.7813 245.0313,1397.7813 Q244.3281,1397.7813 243.7344,1398.0625 Q243.1563,1398.3438 242.7031,1398.9688 Q242.25,1399.5938 242.25,1400.4531 L242.25,1401.375 Q242.25,1402.4063 243.0938,1403.0938 Q243.9375,1403.7813 245.4375,1403.7813 Q246.3281,1403.7813 246.9531,1403.5781 Q247.3125,1403.4688 247.7188,1403.1094 Q247.9844,1402.9063 248.125,1402.8438 Q248.2656,1402.7813 248.4375,1402.7813 Q248.7656,1402.7813 249,1403.0469 Q249.25,1403.2969 249.25,1403.6563 Q249.25,1404 248.9063,1404.4063 Q248.4063,1405 247.6094,1405.3281 Q246.5625,1405.7813 245.2813,1405.7813 Q243.7813,1405.7813 242.5781,1405.1875 Q241.6094,1404.7188 240.9219,1403.7031 Q240.25,1402.6875 240.25,1401.4844 L240.25,1400.3906 Q240.25,1399.1406 240.8438,1398.0469 Q241.4531,1396.9531 242.5,1396.375 Q243.5625,1395.7813 244.75,1395.7813 Q245.4688,1395.7813 246.0938,1396.0313 Q246.7188,1396.2813 247.25,1396.7813 Z " fill="#000000"/><text fill="#000000" font-family="sans-serif" font-size="12" lengthAdjust="spacing" textLength="39" x="265.75" y="1405.1914">Soldier</text><line style="stroke:#A80036;stroke-width:1.5;" x1="190.5" x2="347.5" y1="1416.2813" y2="1416.2813"/><line style="stroke:#A80036;stroke-width:1.5;" x1="190.5" x2="347.5" y1="1424.2813" y2="1424.2813"/><ellipse cx="200.5" cy="1435.2813" fill="#84BE84" rx="3" ry="3" style="stroke:#038048;stroke-width:1.0;"/><text fill="#000000" font-family="sans-serif" font-size="11" lengthAdjust="spacing" textLength="41" x="209.5" y="1439.7002">Soldier()</text><ellipse cx="200.5" cy="1449.1172" fill="#84BE84" rx="3" ry="3" style="stroke:#038048;stroke-width:1.0;"/><text fill="#000000" font-family="sans-serif" font-size="11" lengthAdjust="spacing" textLength="133" x="209.5" y="1453.5361">deplacementHasard() : void</text><!--MD5=[18a7562403221f513ca44e0f82c4c17a]
class javax.swing.JFrame--><rect fill="#FEFECE" filter="url(#fouzc1qzm8eob)" height="48" id="javax.swing.JFrame" style="stroke:#A80036;stroke-width:1.5;" width="74" x="356" y="87.2813"/><ellipse cx="371" cy="103.2813" fill="#ADD1B2" rx="11" ry="11" style="stroke:#A80036;stroke-width:1.0;"/><path d="M373,99.7813 Q373.2031,99.2813 373.4375,99.0313 Q373.6719,98.7813 373.9375,98.7813 Q374.4063,98.7813 374.7031,99.0625 Q375,99.3438 375,100 L375,101.5625 Q375,102.2188 374.7188,102.5 Q374.4375,102.7813 374,102.7813 Q373.6094,102.7813 373.3594,102.6094 Q373.1094,102.4375 373,101.9844 Q372.9531,101.6719 372.7813,101.5 Q372.4688,101.1719 371.9063,100.9844 Q371.3438,100.7813 370.7813,100.7813 Q370.0781,100.7813 369.4844,101.0625 Q368.9063,101.3438 368.4531,101.9688 Q368,102.5938 368,103.4531 L368,104.375 Q368,105.4063 368.8438,106.0938 Q369.6875,106.7813 371.1875,106.7813 Q372.0781,106.7813 372.7031,106.5781 Q373.0625,106.4688 373.4688,106.1094 Q373.7344,105.9063 373.875,105.8438 Q374.0156,105.7813 374.1875,105.7813 Q374.5156,105.7813 374.75,106.0469 Q375,106.2969 375,106.6563 Q375,107 374.6563,107.4063 Q374.1563,108 373.3594,108.3281 Q372.3125,108.7813 371.0313,108.7813 Q369.5313,108.7813 368.3281,108.1875 Q367.3594,107.7188 366.6719,106.7031 Q366,105.6875 366,104.4844 L366,103.3906 Q366,102.1406 366.5938,101.0469 Q367.2031,99.9531 368.25,99.375 Q369.3125,98.7813 370.5,98.7813 Q371.2188,98.7813 371.8438,99.0313 Q372.4688,99.2813 373,99.7813 Z " fill="#000000"/><text fill="#000000" font-family="sans-serif" font-size="12" lengthAdjust="spacing" textLength="42" x="385" y="108.1914">JFrame</text><line style="stroke:#A80036;stroke-width:1.5;" x1="357" x2="429" y1="119.2813" y2="119.2813"/><line style="stroke:#A80036;stroke-width:1.5;" x1="357" x2="429" y1="127.2813" y2="127.2813"/><!--MD5=[6bb091078a77131398ded2505dc805e6]
reverse link v1.Occupant to v1.Ant--><path d="M134.5,1178.7913 C130.71,1197.9113 126.93,1217.0313 123.71,1233.2713 " fill="none" id="v1.Occupant-backto-v1.Ant" style="stroke:#A80036;stroke-width:1.0;"/><polygon fill="none" points="127.67,1177.2513,138.42,1158.9913,141.4,1179.9713,127.67,1177.2513" style="stroke:#A80036;stroke-width:1.0;"/><!--MD5=[5f23119e8391e7d4e50c77b7c307d8b0]
reverse link v1.Occupant to v1.Colony--><path d="M218.07,1175.9013 C233.35,1198.7013 248.77,1221.7113 261.04,1240.0313 " fill="none" id="v1.Occupant-backto-v1.Colony" style="stroke:#A80036;stroke-width:1.0;"/><polygon fill="none" points="212.06,1179.5013,206.74,1158.9913,223.69,1171.7113,212.06,1179.5013" style="stroke:#A80036;stroke-width:1.0;"/><!--MD5=[9ad496d3804fe26a679d0c09db5a5d00]
reverse link javax.swing.JFrame to v1.Display--><path d="M393,155.8412 C393,183.0413 393,218.3812 393,247.9213 " fill="none" id="javax.swing.JFrame-backto-v1.Display" style="stroke:#A80036;stroke-width:1.0;"/><polygon fill="none" points="386,155.6212,393,135.6212,400,155.6212,386,155.6212" style="stroke:#A80036;stroke-width:1.0;"/><!--MD5=[2b3c0c66d568708b8c88c03704a588fd]
reverse link v1.AntFacadeController to v1.GameController--><path d="M192.86,642.4113 C193.57,643.0413 194.29,643.6613 195,644.2813 C242.63,685.6813 298.53,729.9513 341.25,762.9313 " fill="none" id="v1.AntFacadeController-backto-v1.GameController" style="stroke:#A80036;stroke-width:1.0;stroke-dasharray:7.0,7.0;"/><polygon fill="none" points="187.94,647.4013,177.68,628.8613,197.26,636.9613,187.94,647.4013" style="stroke:#A80036;stroke-width:1.0;"/><!--MD5=[8b643222967cb09e26311744d4254daf]
reverse link v1.Occupant to v1.Obstacle--><path d="M235.86,1141.8913 C272.88,1169.7713 317.16,1203.1613 357,1233.2813 C362.95,1237.7813 369.24,1242.5413 375.39,1247.2013 " fill="none" id="v1.Occupant-backto-v1.Obstacle" style="stroke:#A80036;stroke-width:1.0;"/><polygon fill="none" points="231.17,1147.1213,219.41,1129.4913,239.59,1135.9313,231.17,1147.1213" style="stroke:#A80036;stroke-width:1.0;"/><!--MD5=[3d0235026b1c017a8a97b632f47229d9]
reverse link v1.Ant to v1.Queen--><path d="M107.28,1343.7513 C105.64,1357.4813 103.95,1371.5413 102.48,1383.8513 " fill="none" id="v1.Ant-backto-v1.Queen" style="stroke:#A80036;stroke-width:1.0;"/><polygon fill="none" points="100.39,1342.4613,109.71,1323.4313,114.29,1344.1213,100.39,1342.4613" style="stroke:#A80036;stroke-width:1.0;"/><!--MD5=[e0d14114a7db12cf5200f562d4315232]
reverse link v1.Ant to v1.Soldier--><path d="M177.66,1337.0613 C194.87,1352.9313 213.08,1369.7113 228.66,1384.0913 " fill="none" id="v1.Ant-backto-v1.Soldier" style="stroke:#A80036;stroke-width:1.0;"/><polygon fill="none" points="172.84,1342.1413,162.88,1323.4313,182.33,1331.8413,172.84,1342.1413" style="stroke:#A80036;stroke-width:1.0;"/><!--MD5=[636c6d344bfe3c3c062379e767774c6a]
link v1.Main to v1.MyOwnTest--><path codeLine="122" d="M297.56,557.7813 C336.7,557.7813 394.9,557.7813 437.04,557.7813 " fill="none" id="v1.Main-to-v1.MyOwnTest" style="stroke:#A80036;stroke-width:1.0;"/><polygon fill="#A80036" points="442.09,557.7813,433.09,553.7813,437.09,557.7813,433.09,561.7813,442.09,557.7813" style="stroke:#A80036;stroke-width:1.0;"/><text fill="#000000" font-family="sans-serif" font-size="13" lengthAdjust="spacing" textLength="108" x="316" y="551.2764">démarre une partie</text><!--MD5=[979bbf0b7dea7c714ccd26328ded2c9b]
reverse link v1.Display to v1.MyOwnTest--><path codeLine="123" d="M417.36,370.3013 C436.8,420.2213 463.19,487.9713 478.23,526.5613 " fill="none" id="v1.Display-backto-v1.MyOwnTest" style="stroke:#A80036;stroke-width:1.0;"/><polygon fill="#A80036" points="415.5,365.5313,415.0398,375.3694,417.315,370.1902,422.4941,372.4654,415.5,365.5313" style="stroke:#A80036;stroke-width:1.0;"/><text fill="#000000" font-family="sans-serif" font-size="13" lengthAdjust="spacing" textLength="143" x="445" y="437.7764">affiche les déplacements</text><!--MD5=[11cd03b96a24d02f87f6992d061b2984]
link v1.MyOwnTest to v1.GameController--><path codeLine="124" d="M480.47,588.8413 C470.48,620.3413 454.27,671.5013 439.8,717.1213 " fill="none" id="v1.MyOwnTest-to-v1.GameController" style="stroke:#A80036;stroke-width:1.0;"/><polygon fill="#A80036" points="438.23,722.0913,444.7651,714.7229,439.7425,717.3255,437.1399,712.3029,438.23,722.0913" style="stroke:#A80036;stroke-width:1.0;"/><text fill="#000000" font-family="sans-serif" font-size="13" lengthAdjust="spacing" textLength="75" x="452" y="688.7764">gère la partie</text><!--MD5=[30d062ee38f9db26d9c78081e5ce50d9]
reverse link v1.FourmiSoldatTest to v1.AntFacadeController--><path codeLine="125" d="M105,406.5712 C105,427.8512 105,450.1913 105,470.9313 " fill="none" id="v1.FourmiSoldatTest-backto-v1.AntFacadeController" style="stroke:#A80036;stroke-width:1.0;"/><polygon fill="#A80036" points="105,393.4713,101,399.4713,105,405.4713,109,399.4713,105,393.4713" style="stroke:#A80036;stroke-width:1.0;"/><text fill="#000000" font-family="sans-serif" font-size="13" lengthAdjust="spacing" textLength="34" x="106" y="437.7764">utilise</text><!--MD5=[3acf0a6c5b5267bb0d4152888ef8901d]
link v1.GameController to v1.Graphe--><path codeLine="126" d="M412.51,908.2813 C413.41,931.8213 414.38,957.2113 415.29,981.0013 " fill="none" id="v1.GameController-to-v1.Graphe" style="stroke:#A80036;stroke-width:1.0;"/><polygon fill="#A80036" points="415.48,986.0613,419.1171,976.9086,415.2802,981.0652,411.1235,977.2283,415.48,986.0613" style="stroke:#A80036;stroke-width:1.0;"/><polygon fill="#000000" points="419.191,952.4534,421.7823,943.3026,415.9087,943.5272,419.191,952.4534" style="stroke:#000000;stroke-width:1.0;"/><text fill="#000000" font-family="sans-serif" font-size="13" lengthAdjust="spacing" textLength="114" x="428" y="952.7764">gère le déroulement</text><text fill="#000000" font-family="sans-serif" font-size="13" lengthAdjust="spacing" textLength="7" x="405.5108" y="930.1401">1</text><text fill="#000000" font-family="sans-serif" font-size="13" lengthAdjust="spacing" textLength="7" x="407.9206" y="975.4901">n</text><!--MD5=[b632e64321160bbfec024d9ed765c3fa]
link v1.Occupant to v1.Graphe--><path codeLine="127" d="M219.17,1079.2813 C242.81,1079.2813 270.34,1079.2813 297.28,1079.2813 " fill="none" id="v1.Occupant-to-v1.Graphe" style="stroke:#A80036;stroke-width:1.0;"/><polygon fill="#A80036" points="310.43,1079.2813,304.43,1075.2813,298.43,1079.2813,304.43,1083.2813,310.43,1079.2813" style="stroke:#A80036;stroke-width:1.0;"/><polygon fill="#000000" points="246.25,1067.457,237.2049,1064.5181,237.2049,1070.396,246.25,1067.457" style="stroke:#000000;stroke-width:1.0;"/><text fill="#000000" font-family="sans-serif" font-size="13" lengthAdjust="spacing" textLength="42" x="250.25" y="1072.7764">occupe</text><text fill="#000000" font-family="sans-serif" font-size="13" lengthAdjust="spacing" textLength="7" x="227.11" y="1075.8898">n</text><text fill="#000000" font-family="sans-serif" font-size="13" lengthAdjust="spacing" textLength="7" x="295.5501" y="1076.2136">1</text><!--MD5=[df0fe10767199735ba74358dbc76f764]
@startuml

title __DC v1__\n

namespace v1 {

    abstract class Ant extends Occupant
    {
        + Ant()
        + deplacementValide():boolean
        + deplacerVers():void
    }

    interface AntFacadeController
    {
        {abstract} + createColony() : void
        {abstract} + createGrid() : void
        {abstract} + createSoldiers() : void
        {abstract} + createWorkers() : void
        {abstract} + play() : BitSet[][]
        {abstract} + putFood() : void
        {abstract} + putObstacle() : void
        {abstract} + setAntFile() : void
        {abstract} + setParameters() : void
    }

    class Colony extends Occupant
    {
        + Colony()
        + getReine():Reine
    }
  

    class Display extends javax.swing.JFrame
    {
        - cellSize : int
        - height : int
        - width : int
        + Display()
        + update() : void
    }

    class FourmiSoldatTest
    {
        {static} ~ HEIGHT : int
        {static} ~ WIDTH : int
        ~ setUp() : void
        ~ test0() : void
        ~ test1() : void
        ~ test2() : void
        ~ test3() : void
        ~ test4() : void
        ~ testPutObstacle() : void
    }

    class GameController implements AntFacadeController
    {
        + createColony() : void
        + createGrid() : void
        + createSoldiers() : void
        + createWorkers() : void
        + play() : void
        + putFood() : void
        + putObstacle() : void
        + setAntFile() : void
        + setParameters() : void
        - refreshBitSet() : void
    }

    class Graphe
    {
        - listAnts : Ant[*]
        - tabGrid : Occupant[*]
        + Graphe()
        + contientFourmiliere(x:int, y:int) : boolean
        + contientObstacle(x:int, y:int) : boolean
        + contientSoldat(x:int, y:int) : boolean
        + getFourmiliere() : Colony
        + getListFourmis() : Ant[*]
        + getTabGrid() : Occupant[*]
        - fill() : void
    }

    class Main
    {
        {static} + main() : void
    }

    class MyOwnTest
    {
        ~ run() : void
    }

    class Obstacle extends Occupant
    {
        + Obstacle()
    }

    class Occupant
    {
        - x : int
        - y : int
        + Occupant()
        + getGraphe() : Graphe
        + getX() : int
        + getY() : int
        + setX() : void
        + setY() : void
    }
  
    class Queen extends Ant
    {
        + Queen()
        + donnerVie() : void
    }

    class Soldier extends Ant
    {
        + Soldier()
        + deplacementHasard() : void
    }

    Main -> MyOwnTest : démarre une partie
    MyOwnTest -up-> Display : affiche les déplacements
    MyOwnTest - -> GameController : gère la partie
    FourmiSoldatTest *- - AntFacadeController : utilise
    GameController "1" - -> "n" Graphe : gère le déroulement >
    Occupant "n" -* "1" Graphe : occupe >
}
@enduml

PlantUML version 1.2021.5(Sun Apr 25 13:20:28 CEST 2021)
(GPL source distribution)
Java Runtime: OpenJDK Runtime Environment
JVM: Dynamic Code Evolution 64-Bit Server VM
Default Encoding: Cp1252
Language: fr
Country: FR
--></g></svg>