<?xml version="1.0" encoding="UTF-8" standalone="no"?><svg xmlns="http://www.w3.org/2000/svg" xmlns:xlink="http://www.w3.org/1999/xlink" contentScriptType="application/ecmascript" contentStyleType="text/css" height="1947px" preserveAspectRatio="none" style="width:1218px;height:1947px;" version="1.1" viewBox="0 0 1218 1947" width="1218px" zoomAndPan="magnify"><defs><filter height="300%" id="f1g1aoyi6dqojk" width="300%" x="-1" y="-1"><feGaussianBlur result="blurOut" stdDeviation="2.0"/><feColorMatrix in="blurOut" result="blurOut2" type="matrix" values="0 0 0 0 0 0 0 0 0 0 0 0 0 0 0 0 0 0 .4 0"/><feOffset dx="4.0" dy="4.0" in="blurOut2" result="blurOut3"/><feBlend in="SourceGraphic" in2="blurOut3" mode="normal"/></filter></defs><g><rect fill="#FFFFFF" filter="url(#f1g1aoyi6dqojk)" height="1820.1719" style="stroke:#A80036;stroke-width:1.0;" width="10" x="104" y="73.9609"/><rect fill="#FFFFFF" filter="url(#f1g1aoyi6dqojk)" height="189.4063" style="stroke:#A80036;stroke-width:1.0;" width="10" x="234.5" y="104.3125"/><rect fill="#FFFFFF" filter="url(#f1g1aoyi6dqojk)" height="147.0547" style="stroke:#A80036;stroke-width:1.0;" width="10" x="234.5" y="324.0703"/><rect fill="#FFFFFF" filter="url(#f1g1aoyi6dqojk)" height="195.7578" style="stroke:#A80036;stroke-width:1.0;" width="10" x="234.5" y="501.4766"/><rect fill="#FFFFFF" filter="url(#f1g1aoyi6dqojk)" height="709.6797" style="stroke:#A80036;stroke-width:1.0;" width="10" x="234.5" y="727.5859"/><rect fill="#FFFFFF" filter="url(#f1g1aoyi6dqojk)" height="403.5156" style="stroke:#A80036;stroke-width:1.0;" width="10" x="234.5" y="1467.6172"/><rect fill="#FFFFFF" filter="url(#f1g1aoyi6dqojk)" height="145.0547" style="stroke:#A80036;stroke-width:1.0;" width="10" x="378" y="134.6641"/><rect fill="#FFFFFF" filter="url(#f1g1aoyi6dqojk)" height="102.7031" style="stroke:#A80036;stroke-width:1.0;" width="10" x="378" y="354.4219"/><rect fill="#FFFFFF" filter="url(#f1g1aoyi6dqojk)" height="151.4063" style="stroke:#A80036;stroke-width:1.0;" width="10" x="378" y="531.8281"/><rect fill="#FFFFFF" filter="url(#f1g1aoyi6dqojk)" height="665.3281" style="stroke:#A80036;stroke-width:1.0;" width="10" x="378" y="757.9375"/><rect fill="#FFFFFF" filter="url(#f1g1aoyi6dqojk)" height="359.1641" style="stroke:#A80036;stroke-width:1.0;" width="10" x="378" y="1497.9688"/><rect fill="#FFFFFF" filter="url(#f1g1aoyi6dqojk)" height="194.7578" style="stroke:#A80036;stroke-width:1.0;" width="10" x="383" y="1597.0234"/><rect fill="#FFFFFF" filter="url(#f1g1aoyi6dqojk)" height="25" style="stroke:#A80036;stroke-width:1.0;" width="10" x="546" y="203.3672"/><rect fill="#FFFFFF" filter="url(#f1g1aoyi6dqojk)" height="30.3516" style="stroke:#A80036;stroke-width:1.0;" width="10" x="546" y="562.1797"/><rect fill="#FFFFFF" filter="url(#f1g1aoyi6dqojk)" height="30.3516" style="stroke:#A80036;stroke-width:1.0;" width="10" x="546" y="788.2891"/><rect fill="#FFFFFF" filter="url(#f1g1aoyi6dqojk)" height="30.3516" style="stroke:#A80036;stroke-width:1.0;" width="10" x="546" y="1260.8594"/><rect fill="#FFFFFF" filter="url(#f1g1aoyi6dqojk)" height="30.3516" style="stroke:#A80036;stroke-width:1.0;" width="10" x="546" y="1321.5625"/><rect fill="#FFFFFF" filter="url(#f1g1aoyi6dqojk)" height="30.3516" style="stroke:#A80036;stroke-width:1.0;" width="10" x="546" y="1632.375"/><rect fill="#FFFFFF" filter="url(#f1g1aoyi6dqojk)" height="30.3516" style="stroke:#A80036;stroke-width:1.0;" width="10" x="709" y="848.9922"/><rect fill="#FFFFFF" filter="url(#f1g1aoyi6dqojk)" height="499.5703" style="stroke:#A80036;stroke-width:1.0;" width="10" x="913.5" y="909.6953"/><rect fill="#FFFFFF" filter="url(#f1g1aoyi6dqojk)" height="41.3516" style="stroke:#A80036;stroke-width:1.0;" width="10" x="918.5" y="948.0469"/><rect fill="#FFFFFF" filter="url(#f1g1aoyi6dqojk)" height="41.3516" style="stroke:#A80036;stroke-width:1.0;" width="10" x="918.5" y="1034.75"/><rect fill="#FFFFFF" filter="url(#f1g1aoyi6dqojk)" height="41.3516" style="stroke:#A80036;stroke-width:1.0;" width="10" x="918.5" y="1121.4531"/><rect fill="#FFFFFF" filter="url(#f1g1aoyi6dqojk)" height="14" style="stroke:#A80036;stroke-width:1.0;" width="10" x="1033.5" y="1743.7813"/><rect fill="#FFFFFF" filter="url(#f1g1aoyi6dqojk)" height="14" style="stroke:#A80036;stroke-width:1.0;" width="10" x="1106.5" y="1829.1328"/><rect fill="#FFFFFF" filter="url(#f1g1aoyi6dqojk)" height="30.3516" style="stroke:#A80036;stroke-width:1.0;" width="10" x="1176" y="1528.3203"/><rect fill="#FFFFFF" filter="url(#f1g1aoyi6dqojk)" height="62.7031" style="stroke:#000000;stroke-width:2.0;" width="574" x="314" y="607.5313"/><rect fill="#FFFFFF" filter="url(#f1g1aoyi6dqojk)" height="95.0547" style="stroke:#000000;stroke-width:2.0;" width="785.5" x="304" y="1677.7266"/><rect fill="#FFFFFF" filter="url(#f1g1aoyi6dqojk)" height="62.7031" style="stroke:#000000;stroke-width:2.0;" width="765.5" x="314" y="1703.0781"/><line style="stroke:#A80036;stroke-width:1.0;stroke-dasharray:5.0,5.0;" x1="29" x2="29" y1="41.6094" y2="1903.1328"/><line style="stroke:#A80036;stroke-width:1.0;stroke-dasharray:5.0,5.0;" x1="109" x2="109" y1="41.6094" y2="1903.1328"/><line style="stroke:#A80036;stroke-width:1.0;stroke-dasharray:5.0,5.0;" x1="239" x2="239" y1="41.6094" y2="1903.1328"/><line style="stroke:#A80036;stroke-width:1.0;stroke-dasharray:5.0,5.0;" x1="383" x2="383" y1="41.6094" y2="1903.1328"/><line style="stroke:#A80036;stroke-width:1.0;stroke-dasharray:5.0,5.0;" x1="551" x2="551" y1="41.6094" y2="1903.1328"/><line style="stroke:#A80036;stroke-width:1.0;stroke-dasharray:5.0,5.0;" x1="633" x2="633" y1="41.6094" y2="1903.1328"/><line style="stroke:#A80036;stroke-width:1.0;stroke-dasharray:5.0,5.0;" x1="714" x2="714" y1="41.6094" y2="1903.1328"/><line style="stroke:#A80036;stroke-width:1.0;stroke-dasharray:5.0,5.0;" x1="774" x2="774" y1="41.6094" y2="1903.1328"/><line style="stroke:#A80036;stroke-width:1.0;stroke-dasharray:5.0,5.0;" x1="841" x2="841" y1="41.6094" y2="1903.1328"/><line style="stroke:#A80036;stroke-width:1.0;stroke-dasharray:5.0,5.0;" x1="918" x2="918" y1="41.6094" y2="1903.1328"/><line style="stroke:#A80036;stroke-width:1.0;stroke-dasharray:5.0,5.0;" x1="1038.5" x2="1038.5" y1="41.6094" y2="1903.1328"/><line style="stroke:#A80036;stroke-width:1.0;stroke-dasharray:5.0,5.0;" x1="1111.5" x2="1111.5" y1="41.6094" y2="1903.1328"/><line style="stroke:#A80036;stroke-width:1.0;stroke-dasharray:5.0,5.0;" x1="1180.5" x2="1180.5" y1="41.6094" y2="1903.1328"/><rect fill="#FEFECE" filter="url(#f1g1aoyi6dqojk)" height="31.6094" style="stroke:#A80036;stroke-width:1.5;" width="44" x="5" y="5"/><text fill="#000000" font-family="sans-serif" font-size="14" lengthAdjust="spacing" textLength="30" x="12" y="26.5332">Main</text><rect fill="#FEFECE" filter="url(#f1g1aoyi6dqojk)" height="31.6094" style="stroke:#A80036;stroke-width:1.5;" width="44" x="5" y="1902.1328"/><text fill="#000000" font-family="sans-serif" font-size="14" lengthAdjust="spacing" textLength="30" x="12" y="1923.666">Main</text><rect fill="#FEFECE" filter="url(#f1g1aoyi6dqojk)" height="31.6094" style="stroke:#A80036;stroke-width:1.5;" width="88" x="63" y="5"/><text fill="#000000" font-family="sans-serif" font-size="14" lengthAdjust="spacing" textLength="74" x="70" y="26.5332">MyOwnTest</text><rect fill="#FEFECE" filter="url(#f1g1aoyi6dqojk)" height="31.6094" style="stroke:#A80036;stroke-width:1.5;" width="88" x="63" y="1902.1328"/><text fill="#000000" font-family="sans-serif" font-size="14" lengthAdjust="spacing" textLength="74" x="70" y="1923.666">MyOwnTest</text><rect fill="#FEFECE" filter="url(#f1g1aoyi6dqojk)" height="31.6094" style="stroke:#A80036;stroke-width:1.5;" width="145" x="165" y="5"/><text fill="#000000" font-family="sans-serif" font-size="14" lengthAdjust="spacing" textLength="131" x="172" y="26.5332">AntFacadeController</text><rect fill="#FEFECE" filter="url(#f1g1aoyi6dqojk)" height="31.6094" style="stroke:#A80036;stroke-width:1.5;" width="145" x="165" y="1902.1328"/><text fill="#000000" font-family="sans-serif" font-size="14" lengthAdjust="spacing" textLength="131" x="172" y="1923.666">AntFacadeController</text><rect fill="#FEFECE" filter="url(#f1g1aoyi6dqojk)" height="31.6094" style="stroke:#A80036;stroke-width:1.5;" width="114" x="324" y="5"/><text fill="#000000" font-family="sans-serif" font-size="14" lengthAdjust="spacing" textLength="100" x="331" y="26.5332">GameController</text><rect fill="#FEFECE" filter="url(#f1g1aoyi6dqojk)" height="31.6094" style="stroke:#A80036;stroke-width:1.5;" width="114" x="324" y="1902.1328"/><text fill="#000000" font-family="sans-serif" font-size="14" lengthAdjust="spacing" textLength="100" x="331" y="1923.666">GameController</text><rect fill="#FEFECE" filter="url(#f1g1aoyi6dqojk)" height="31.6094" style="stroke:#A80036;stroke-width:1.5;" width="62" x="518" y="5"/><text fill="#000000" font-family="sans-serif" font-size="14" lengthAdjust="spacing" textLength="48" x="525" y="26.5332">Graphe</text><rect fill="#FEFECE" filter="url(#f1g1aoyi6dqojk)" height="31.6094" style="stroke:#A80036;stroke-width:1.5;" width="62" x="518" y="1902.1328"/><text fill="#000000" font-family="sans-serif" font-size="14" lengthAdjust="spacing" textLength="48" x="525" y="1923.666">Graphe</text><rect fill="#FEFECE" filter="url(#f1g1aoyi6dqojk)" height="31.6094" style="stroke:#A80036;stroke-width:1.5;" width="75" x="594" y="5"/><text fill="#000000" font-family="sans-serif" font-size="14" lengthAdjust="spacing" textLength="61" x="601" y="26.5332">Occupant</text><rect fill="#FEFECE" filter="url(#f1g1aoyi6dqojk)" height="31.6094" style="stroke:#A80036;stroke-width:1.5;" width="75" x="594" y="1902.1328"/><text fill="#000000" font-family="sans-serif" font-size="14" lengthAdjust="spacing" textLength="61" x="601" y="1923.666">Occupant</text><rect fill="#FEFECE" filter="url(#f1g1aoyi6dqojk)" height="31.6094" style="stroke:#A80036;stroke-width:1.5;" width="58" x="683" y="5"/><text fill="#000000" font-family="sans-serif" font-size="14" lengthAdjust="spacing" textLength="44" x="690" y="26.5332">Colony</text><rect fill="#FEFECE" filter="url(#f1g1aoyi6dqojk)" height="31.6094" style="stroke:#A80036;stroke-width:1.5;" width="58" x="683" y="1902.1328"/><text fill="#000000" font-family="sans-serif" font-size="14" lengthAdjust="spacing" textLength="44" x="690" y="1923.666">Colony</text><rect fill="#FEFECE" filter="url(#f1g1aoyi6dqojk)" height="31.6094" style="stroke:#A80036;stroke-width:1.5;" width="35" x="755" y="5"/><text fill="#000000" font-family="sans-serif" font-size="14" lengthAdjust="spacing" textLength="21" x="762" y="26.5332">Ant</text><rect fill="#FEFECE" filter="url(#f1g1aoyi6dqojk)" height="31.6094" style="stroke:#A80036;stroke-width:1.5;" width="35" x="755" y="1902.1328"/><text fill="#000000" font-family="sans-serif" font-size="14" lengthAdjust="spacing" textLength="21" x="762" y="1923.666">Ant</text><rect fill="#FEFECE" filter="url(#f1g1aoyi6dqojk)" height="31.6094" style="stroke:#A80036;stroke-width:1.5;" width="70" x="804" y="5"/><text fill="#000000" font-family="sans-serif" font-size="14" lengthAdjust="spacing" textLength="56" x="811" y="26.5332">Obstacle</text><rect fill="#FEFECE" filter="url(#f1g1aoyi6dqojk)" height="31.6094" style="stroke:#A80036;stroke-width:1.5;" width="70" x="804" y="1902.1328"/><text fill="#000000" font-family="sans-serif" font-size="14" lengthAdjust="spacing" textLength="56" x="811" y="1923.666">Obstacle</text><rect fill="#FEFECE" filter="url(#f1g1aoyi6dqojk)" height="31.6094" style="stroke:#A80036;stroke-width:1.5;" width="57" x="888" y="5"/><text fill="#000000" font-family="sans-serif" font-size="14" lengthAdjust="spacing" textLength="43" x="895" y="26.5332">Queen</text><rect fill="#FEFECE" filter="url(#f1g1aoyi6dqojk)" height="31.6094" style="stroke:#A80036;stroke-width:1.5;" width="57" x="888" y="1902.1328"/><text fill="#000000" font-family="sans-serif" font-size="14" lengthAdjust="spacing" textLength="43" x="895" y="1923.666">Queen</text><rect fill="#FEFECE" filter="url(#f1g1aoyi6dqojk)" height="31.6094" style="stroke:#A80036;stroke-width:1.5;" width="58" x="1007.5" y="5"/><text fill="#000000" font-family="sans-serif" font-size="14" lengthAdjust="spacing" textLength="44" x="1014.5" y="26.5332">Soldier</text><rect fill="#FEFECE" filter="url(#f1g1aoyi6dqojk)" height="31.6094" style="stroke:#A80036;stroke-width:1.5;" width="58" x="1007.5" y="1902.1328"/><text fill="#000000" font-family="sans-serif" font-size="14" lengthAdjust="spacing" textLength="44" x="1014.5" y="1923.666">Soldier</text><rect fill="#FEFECE" filter="url(#f1g1aoyi6dqojk)" height="31.6094" style="stroke:#A80036;stroke-width:1.5;" width="60" x="1079.5" y="5"/><text fill="#000000" font-family="sans-serif" font-size="14" lengthAdjust="spacing" textLength="46" x="1086.5" y="26.5332">Display</text><rect fill="#FEFECE" filter="url(#f1g1aoyi6dqojk)" height="31.6094" style="stroke:#A80036;stroke-width:1.5;" width="60" x="1079.5" y="1902.1328"/><text fill="#000000" font-family="sans-serif" font-size="14" lengthAdjust="spacing" textLength="46" x="1086.5" y="1923.666">Display</text><rect fill="#FEFECE" filter="url(#f1g1aoyi6dqojk)" height="31.6094" style="stroke:#A80036;stroke-width:1.5;" width="51" x="1153.5" y="5"/><text fill="#000000" font-family="sans-serif" font-size="14" lengthAdjust="spacing" textLength="37" x="1160.5" y="26.5332">BitSet</text><rect fill="#FEFECE" filter="url(#f1g1aoyi6dqojk)" height="31.6094" style="stroke:#A80036;stroke-width:1.5;" width="51" x="1153.5" y="1902.1328"/><text fill="#000000" font-family="sans-serif" font-size="14" lengthAdjust="spacing" textLength="37" x="1160.5" y="1923.666">BitSet</text><rect fill="#FFFFFF" filter="url(#f1g1aoyi6dqojk)" height="1820.1719" style="stroke:#A80036;stroke-width:1.0;" width="10" x="104" y="73.9609"/><rect fill="#FFFFFF" filter="url(#f1g1aoyi6dqojk)" height="189.4063" style="stroke:#A80036;stroke-width:1.0;" width="10" x="234.5" y="104.3125"/><rect fill="#FFFFFF" filter="url(#f1g1aoyi6dqojk)" height="147.0547" style="stroke:#A80036;stroke-width:1.0;" width="10" x="234.5" y="324.0703"/><rect fill="#FFFFFF" filter="url(#f1g1aoyi6dqojk)" height="195.7578" style="stroke:#A80036;stroke-width:1.0;" width="10" x="234.5" y="501.4766"/><rect fill="#FFFFFF" filter="url(#f1g1aoyi6dqojk)" height="709.6797" style="stroke:#A80036;stroke-width:1.0;" width="10" x="234.5" y="727.5859"/><rect fill="#FFFFFF" filter="url(#f1g1aoyi6dqojk)" height="403.5156" style="stroke:#A80036;stroke-width:1.0;" width="10" x="234.5" y="1467.6172"/><rect fill="#FFFFFF" filter="url(#f1g1aoyi6dqojk)" height="145.0547" style="stroke:#A80036;stroke-width:1.0;" width="10" x="378" y="134.6641"/><rect fill="#FFFFFF" filter="url(#f1g1aoyi6dqojk)" height="102.7031" style="stroke:#A80036;stroke-width:1.0;" width="10" x="378" y="354.4219"/><rect fill="#FFFFFF" filter="url(#f1g1aoyi6dqojk)" height="151.4063" style="stroke:#A80036;stroke-width:1.0;" width="10" x="378" y="531.8281"/><rect fill="#FFFFFF" filter="url(#f1g1aoyi6dqojk)" height="665.3281" style="stroke:#A80036;stroke-width:1.0;" width="10" x="378" y="757.9375"/><rect fill="#FFFFFF" filter="url(#f1g1aoyi6dqojk)" height="359.1641" style="stroke:#A80036;stroke-width:1.0;" width="10" x="378" y="1497.9688"/><rect fill="#FFFFFF" filter="url(#f1g1aoyi6dqojk)" height="194.7578" style="stroke:#A80036;stroke-width:1.0;" width="10" x="383" y="1597.0234"/><rect fill="#FFFFFF" filter="url(#f1g1aoyi6dqojk)" height="25" style="stroke:#A80036;stroke-width:1.0;" width="10" x="546" y="203.3672"/><rect fill="#FFFFFF" filter="url(#f1g1aoyi6dqojk)" height="30.3516" style="stroke:#A80036;stroke-width:1.0;" width="10" x="546" y="562.1797"/><rect fill="#FFFFFF" filter="url(#f1g1aoyi6dqojk)" height="30.3516" style="stroke:#A80036;stroke-width:1.0;" width="10" x="546" y="788.2891"/><rect fill="#FFFFFF" filter="url(#f1g1aoyi6dqojk)" height="30.3516" style="stroke:#A80036;stroke-width:1.0;" width="10" x="546" y="1260.8594"/><rect fill="#FFFFFF" filter="url(#f1g1aoyi6dqojk)" height="30.3516" style="stroke:#A80036;stroke-width:1.0;" width="10" x="546" y="1321.5625"/><rect fill="#FFFFFF" filter="url(#f1g1aoyi6dqojk)" height="30.3516" style="stroke:#A80036;stroke-width:1.0;" width="10" x="546" y="1632.375"/><rect fill="#FFFFFF" filter="url(#f1g1aoyi6dqojk)" height="30.3516" style="stroke:#A80036;stroke-width:1.0;" width="10" x="709" y="848.9922"/><rect fill="#FFFFFF" filter="url(#f1g1aoyi6dqojk)" height="499.5703" style="stroke:#A80036;stroke-width:1.0;" width="10" x="913.5" y="909.6953"/><rect fill="#FFFFFF" filter="url(#f1g1aoyi6dqojk)" height="41.3516" style="stroke:#A80036;stroke-width:1.0;" width="10" x="918.5" y="948.0469"/><rect fill="#FFFFFF" filter="url(#f1g1aoyi6dqojk)" height="41.3516" style="stroke:#A80036;stroke-width:1.0;" width="10" x="918.5" y="1034.75"/><rect fill="#FFFFFF" filter="url(#f1g1aoyi6dqojk)" height="41.3516" style="stroke:#A80036;stroke-width:1.0;" width="10" x="918.5" y="1121.4531"/><rect fill="#FFFFFF" filter="url(#f1g1aoyi6dqojk)" height="14" style="stroke:#A80036;stroke-width:1.0;" width="10" x="1033.5" y="1743.7813"/><rect fill="#FFFFFF" filter="url(#f1g1aoyi6dqojk)" height="14" style="stroke:#A80036;stroke-width:1.0;" width="10" x="1106.5" y="1829.1328"/><rect fill="#FFFFFF" filter="url(#f1g1aoyi6dqojk)" height="30.3516" style="stroke:#A80036;stroke-width:1.0;" width="10" x="1176" y="1528.3203"/><polygon fill="#A80036" points="92,69.9609,102,73.9609,92,77.9609,96,73.9609" style="stroke:#A80036;stroke-width:1.0;"/><line style="stroke:#A80036;stroke-width:1.0;" x1="29" x2="98" y1="73.9609" y2="73.9609"/><text fill="#000000" font-family="sans-serif" font-size="13" lengthAdjust="spacing" textLength="26" x="36" y="69.1045">run()</text><polygon fill="#A80036" points="222.5,100.3125,232.5,104.3125,222.5,108.3125,226.5,104.3125" style="stroke:#A80036;stroke-width:1.0;"/><line style="stroke:#A80036;stroke-width:1.0;" x1="114" x2="228.5" y1="104.3125" y2="104.3125"/><text fill="#000000" font-family="sans-serif" font-size="13" lengthAdjust="spacing" textLength="68" x="121" y="99.4561">createGrid()</text><polygon fill="#A80036" points="366,130.6641,376,134.6641,366,138.6641,370,134.6641" style="stroke:#A80036;stroke-width:1.0;"/><line style="stroke:#A80036;stroke-width:1.0;" x1="244.5" x2="372" y1="134.6641" y2="134.6641"/><text fill="#000000" font-family="sans-serif" font-size="13" lengthAdjust="spacing" textLength="68" x="251.5" y="129.8076">createGrid()</text><polygon fill="#A80036" points="539,161.0156,549,165.0156,539,169.0156,543,165.0156" style="stroke:#A80036;stroke-width:1.0;"/><line style="stroke:#A80036;stroke-width:1.0;" x1="388" x2="545" y1="165.0156" y2="165.0156"/><text fill="#000000" font-family="sans-serif" font-size="13" lengthAdjust="spacing" textLength="29" x="395" y="160.1592">this()</text><line style="stroke:#A80036;stroke-width:1.0;" x1="551" x2="598" y1="190.3672" y2="190.3672"/><line style="stroke:#A80036;stroke-width:1.0;" x1="598" x2="598" y1="190.3672" y2="203.3672"/><line style="stroke:#A80036;stroke-width:1.0;" x1="557" x2="598" y1="203.3672" y2="203.3672"/><polygon fill="#A80036" points="567,199.3672,557,203.3672,567,207.3672,563,203.3672" style="stroke:#A80036;stroke-width:1.0;"/><text fill="#000000" font-family="sans-serif" font-size="13" lengthAdjust="spacing" textLength="20" x="563" y="185.5107">fill()</text><line style="stroke:#A80036;stroke-width:1.0;stroke-dasharray:2.0,2.0;" x1="556" x2="598" y1="227.3672" y2="227.3672"/><line style="stroke:#A80036;stroke-width:1.0;stroke-dasharray:2.0,2.0;" x1="598" x2="598" y1="227.3672" y2="240.3672"/><line style="stroke:#A80036;stroke-width:1.0;stroke-dasharray:2.0,2.0;" x1="551" x2="598" y1="240.3672" y2="240.3672"/><polygon fill="#A80036" points="561,236.3672,551,240.3672,561,244.3672,557,240.3672" style="stroke:#A80036;stroke-width:1.0;"/><polygon fill="#A80036" points="399,261.7188,389,265.7188,399,269.7188,395,265.7188" style="stroke:#A80036;stroke-width:1.0;"/><line style="stroke:#A80036;stroke-width:1.0;stroke-dasharray:2.0,2.0;" x1="393" x2="550" y1="265.7188" y2="265.7188"/><text fill="#000000" font-family="sans-serif" font-size="13" lengthAdjust="spacing" textLength="85" x="405" y="260.8623">graphe:Graphe</text><polygon fill="#A80036" points="255.5,275.7188,245.5,279.7188,255.5,283.7188,251.5,279.7188" style="stroke:#A80036;stroke-width:1.0;"/><line style="stroke:#A80036;stroke-width:1.0;stroke-dasharray:2.0,2.0;" x1="249.5" x2="382" y1="279.7188" y2="279.7188"/><polygon fill="#A80036" points="125,289.7188,115,293.7188,125,297.7188,121,293.7188" style="stroke:#A80036;stroke-width:1.0;"/><line style="stroke:#A80036;stroke-width:1.0;stroke-dasharray:2.0,2.0;" x1="119" x2="238.5" y1="293.7188" y2="293.7188"/><polygon fill="#A80036" points="222.5,320.0703,232.5,324.0703,222.5,328.0703,226.5,324.0703" style="stroke:#A80036;stroke-width:1.0;"/><line style="stroke:#A80036;stroke-width:1.0;" x1="114" x2="228.5" y1="324.0703" y2="324.0703"/><text fill="#000000" font-family="sans-serif" font-size="13" lengthAdjust="spacing" textLength="84" x="121" y="319.2139">createColony()</text><polygon fill="#A80036" points="366,350.4219,376,354.4219,366,358.4219,370,354.4219" style="stroke:#A80036;stroke-width:1.0;"/><line style="stroke:#A80036;stroke-width:1.0;" x1="244.5" x2="372" y1="354.4219" y2="354.4219"/><text fill="#000000" font-family="sans-serif" font-size="13" lengthAdjust="spacing" textLength="84" x="251.5" y="349.5654">createColony()</text><polygon fill="#A80036" points="702,380.7734,712,384.7734,702,388.7734,706,384.7734" style="stroke:#A80036;stroke-width:1.0;"/><line style="stroke:#A80036;stroke-width:1.0;" x1="388" x2="708" y1="384.7734" y2="384.7734"/><text fill="#000000" font-family="sans-serif" font-size="13" lengthAdjust="spacing" textLength="29" x="395" y="379.917">this()</text><polygon fill="#A80036" points="906.5,411.125,916.5,415.125,906.5,419.125,910.5,415.125" style="stroke:#A80036;stroke-width:1.0;"/><line style="stroke:#A80036;stroke-width:1.0;" x1="714" x2="912.5" y1="415.125" y2="415.125"/><text fill="#000000" font-family="sans-serif" font-size="13" lengthAdjust="spacing" textLength="29" x="721" y="410.2686">this()</text><polygon fill="#A80036" points="725,425.125,715,429.125,725,433.125,721,429.125" style="stroke:#A80036;stroke-width:1.0;"/><line style="stroke:#A80036;stroke-width:1.0;stroke-dasharray:2.0,2.0;" x1="719" x2="917.5" y1="429.125" y2="429.125"/><polygon fill="#A80036" points="399,439.125,389,443.125,399,447.125,395,443.125" style="stroke:#A80036;stroke-width:1.0;"/><line style="stroke:#A80036;stroke-width:1.0;stroke-dasharray:2.0,2.0;" x1="393" x2="713" y1="443.125" y2="443.125"/><polygon fill="#A80036" points="255.5,453.125,245.5,457.125,255.5,461.125,251.5,457.125" style="stroke:#A80036;stroke-width:1.0;"/><line style="stroke:#A80036;stroke-width:1.0;stroke-dasharray:2.0,2.0;" x1="249.5" x2="382" y1="457.125" y2="457.125"/><polygon fill="#A80036" points="125,467.125,115,471.125,125,475.125,121,471.125" style="stroke:#A80036;stroke-width:1.0;"/><line style="stroke:#A80036;stroke-width:1.0;stroke-dasharray:2.0,2.0;" x1="119" x2="238.5" y1="471.125" y2="471.125"/><polygon fill="#A80036" points="222.5,497.4766,232.5,501.4766,222.5,505.4766,226.5,501.4766" style="stroke:#A80036;stroke-width:1.0;"/><line style="stroke:#A80036;stroke-width:1.0;" x1="114" x2="228.5" y1="501.4766" y2="501.4766"/><text fill="#000000" font-family="sans-serif" font-size="13" lengthAdjust="spacing" textLength="78" x="121" y="496.6201">putObstacle()</text><polygon fill="#A80036" points="366,527.8281,376,531.8281,366,535.8281,370,531.8281" style="stroke:#A80036;stroke-width:1.0;"/><line style="stroke:#A80036;stroke-width:1.0;" x1="244.5" x2="372" y1="531.8281" y2="531.8281"/><text fill="#000000" font-family="sans-serif" font-size="13" lengthAdjust="spacing" textLength="78" x="251.5" y="526.9717">putObstacle()</text><polygon fill="#A80036" points="534,558.1797,544,562.1797,534,566.1797,538,562.1797" style="stroke:#A80036;stroke-width:1.0;"/><line style="stroke:#A80036;stroke-width:1.0;" x1="388" x2="540" y1="562.1797" y2="562.1797"/><text fill="#000000" font-family="sans-serif" font-size="13" lengthAdjust="spacing" textLength="118" x="395" y="557.3232">contientFourmiliere()</text><polygon fill="#A80036" points="399,588.5313,389,592.5313,399,596.5313,395,592.5313" style="stroke:#A80036;stroke-width:1.0;"/><line style="stroke:#A80036;stroke-width:1.0;stroke-dasharray:2.0,2.0;" x1="393" x2="550" y1="592.5313" y2="592.5313"/><text fill="#000000" font-family="sans-serif" font-size="13" lengthAdjust="spacing" textLength="58" x="405" y="587.6748">b:Boolean</text><path d="M314,607.5313 L375,607.5313 L375,615.5313 L365,625.5313 L314,625.5313 L314,607.5313 " fill="#EEEEEE" style="stroke:#000000;stroke-width:1.0;"/><rect fill="none" height="62.7031" style="stroke:#000000;stroke-width:2.0;" width="574" x="314" y="607.5313"/><text fill="#000000" font-family="sans-serif" font-size="13" font-weight="bold" lengthAdjust="spacing" textLength="16" x="329" y="622.0264">alt</text><text fill="#000000" font-family="sans-serif" font-size="11" font-weight="bold" lengthAdjust="spacing" textLength="40" x="390" y="620.9502">[NOT b]</text><polygon fill="#A80036" points="829,644.2344,839,648.2344,829,652.2344,833,648.2344" style="stroke:#A80036;stroke-width:1.0;"/><line style="stroke:#A80036;stroke-width:1.0;" x1="388" x2="835" y1="648.2344" y2="648.2344"/><text fill="#000000" font-family="sans-serif" font-size="13" lengthAdjust="spacing" textLength="29" x="395" y="643.3779">this()</text><polygon fill="#A80036" points="399,658.2344,389,662.2344,399,666.2344,395,662.2344" style="stroke:#A80036;stroke-width:1.0;"/><line style="stroke:#A80036;stroke-width:1.0;stroke-dasharray:2.0,2.0;" x1="393" x2="840" y1="662.2344" y2="662.2344"/><polygon fill="#A80036" points="255.5,679.2344,245.5,683.2344,255.5,687.2344,251.5,683.2344" style="stroke:#A80036;stroke-width:1.0;"/><line style="stroke:#A80036;stroke-width:1.0;stroke-dasharray:2.0,2.0;" x1="249.5" x2="382" y1="683.2344" y2="683.2344"/><polygon fill="#A80036" points="125,693.2344,115,697.2344,125,701.2344,121,697.2344" style="stroke:#A80036;stroke-width:1.0;"/><line style="stroke:#A80036;stroke-width:1.0;stroke-dasharray:2.0,2.0;" x1="119" x2="238.5" y1="697.2344" y2="697.2344"/><polygon fill="#A80036" points="222.5,723.5859,232.5,727.5859,222.5,731.5859,226.5,727.5859" style="stroke:#A80036;stroke-width:1.0;"/><line style="stroke:#A80036;stroke-width:1.0;" x1="114" x2="228.5" y1="727.5859" y2="727.5859"/><text fill="#000000" font-family="sans-serif" font-size="13" lengthAdjust="spacing" textLength="91" x="121" y="722.7295">createSoldiers()</text><polygon fill="#A80036" points="366,753.9375,376,757.9375,366,761.9375,370,757.9375" style="stroke:#A80036;stroke-width:1.0;"/><line style="stroke:#A80036;stroke-width:1.0;" x1="244.5" x2="372" y1="757.9375" y2="757.9375"/><text fill="#000000" font-family="sans-serif" font-size="13" lengthAdjust="spacing" textLength="91" x="251.5" y="753.0811">createSoldiers()</text><polygon fill="#A80036" points="534,784.2891,544,788.2891,534,792.2891,538,788.2891" style="stroke:#A80036;stroke-width:1.0;"/><line style="stroke:#A80036;stroke-width:1.0;" x1="388" x2="540" y1="788.2891" y2="788.2891"/><text fill="#000000" font-family="sans-serif" font-size="13" lengthAdjust="spacing" textLength="90" x="395" y="783.4326">getFourmiliere()</text><polygon fill="#A80036" points="399,814.6406,389,818.6406,399,822.6406,395,818.6406" style="stroke:#A80036;stroke-width:1.0;"/><line style="stroke:#A80036;stroke-width:1.0;stroke-dasharray:2.0,2.0;" x1="393" x2="550" y1="818.6406" y2="818.6406"/><text fill="#000000" font-family="sans-serif" font-size="13" lengthAdjust="spacing" textLength="51" x="405" y="813.7842">c:Colony</text><polygon fill="#A80036" points="697,844.9922,707,848.9922,697,852.9922,701,848.9922" style="stroke:#A80036;stroke-width:1.0;"/><line style="stroke:#A80036;stroke-width:1.0;" x1="388" x2="703" y1="848.9922" y2="848.9922"/><text fill="#000000" font-family="sans-serif" font-size="13" lengthAdjust="spacing" textLength="70" x="395" y="844.1357">c.getReine()</text><polygon fill="#A80036" points="399,875.3438,389,879.3438,399,883.3438,395,879.3438" style="stroke:#A80036;stroke-width:1.0;"/><line style="stroke:#A80036;stroke-width:1.0;stroke-dasharray:2.0,2.0;" x1="393" x2="713" y1="879.3438" y2="879.3438"/><text fill="#000000" font-family="sans-serif" font-size="13" lengthAdjust="spacing" textLength="49" x="405" y="874.4873">q:Queen</text><polygon fill="#A80036" points="901.5,905.6953,911.5,909.6953,901.5,913.6953,905.5,909.6953" style="stroke:#A80036;stroke-width:1.0;"/><line style="stroke:#A80036;stroke-width:1.0;" x1="388" x2="907.5" y1="909.6953" y2="909.6953"/><text fill="#000000" font-family="sans-serif" font-size="13" lengthAdjust="spacing" textLength="77" x="395" y="904.8389">q.donnerVie()</text><line style="stroke:#A80036;stroke-width:1.0;" x1="923.5" x2="970.5" y1="935.0469" y2="935.0469"/><line style="stroke:#A80036;stroke-width:1.0;" x1="970.5" x2="970.5" y1="935.0469" y2="948.0469"/><line style="stroke:#A80036;stroke-width:1.0;" x1="929.5" x2="970.5" y1="948.0469" y2="948.0469"/><polygon fill="#A80036" points="939.5,944.0469,929.5,948.0469,939.5,952.0469,935.5,948.0469" style="stroke:#A80036;stroke-width:1.0;"/><text fill="#000000" font-family="sans-serif" font-size="13" lengthAdjust="spacing" textLength="33" x="935.5" y="930.1904">getX()</text><line style="stroke:#A80036;stroke-width:1.0;stroke-dasharray:2.0,2.0;" x1="928.5" x2="970.5" y1="988.3984" y2="988.3984"/><line style="stroke:#A80036;stroke-width:1.0;stroke-dasharray:2.0,2.0;" x1="970.5" x2="970.5" y1="988.3984" y2="1001.3984"/><line style="stroke:#A80036;stroke-width:1.0;stroke-dasharray:2.0,2.0;" x1="923.5" x2="970.5" y1="1001.3984" y2="1001.3984"/><polygon fill="#A80036" points="933.5,997.3984,923.5,1001.3984,933.5,1005.3984,929.5,1001.3984" style="stroke:#A80036;stroke-width:1.0;"/><text fill="#000000" font-family="sans-serif" font-size="13" lengthAdjust="spacing" textLength="50" x="935.5" y="983.542">x:Integer</text><line style="stroke:#A80036;stroke-width:1.0;" x1="923.5" x2="970.5" y1="1021.75" y2="1021.75"/><line style="stroke:#A80036;stroke-width:1.0;" x1="970.5" x2="970.5" y1="1021.75" y2="1034.75"/><line style="stroke:#A80036;stroke-width:1.0;" x1="929.5" x2="970.5" y1="1034.75" y2="1034.75"/><polygon fill="#A80036" points="939.5,1030.75,929.5,1034.75,939.5,1038.75,935.5,1034.75" style="stroke:#A80036;stroke-width:1.0;"/><text fill="#000000" font-family="sans-serif" font-size="13" lengthAdjust="spacing" textLength="35" x="935.5" y="1016.8936">getY()</text><line style="stroke:#A80036;stroke-width:1.0;stroke-dasharray:2.0,2.0;" x1="928.5" x2="970.5" y1="1075.1016" y2="1075.1016"/><line style="stroke:#A80036;stroke-width:1.0;stroke-dasharray:2.0,2.0;" x1="970.5" x2="970.5" y1="1075.1016" y2="1088.1016"/><line style="stroke:#A80036;stroke-width:1.0;stroke-dasharray:2.0,2.0;" x1="923.5" x2="970.5" y1="1088.1016" y2="1088.1016"/><polygon fill="#A80036" points="933.5,1084.1016,923.5,1088.1016,933.5,1092.1016,929.5,1088.1016" style="stroke:#A80036;stroke-width:1.0;"/><text fill="#000000" font-family="sans-serif" font-size="13" lengthAdjust="spacing" textLength="50" x="935.5" y="1070.2451">y:Integer</text><line style="stroke:#A80036;stroke-width:1.0;" x1="923.5" x2="970.5" y1="1108.4531" y2="1108.4531"/><line style="stroke:#A80036;stroke-width:1.0;" x1="970.5" x2="970.5" y1="1108.4531" y2="1121.4531"/><line style="stroke:#A80036;stroke-width:1.0;" x1="929.5" x2="970.5" y1="1121.4531" y2="1121.4531"/><polygon fill="#A80036" points="939.5,1117.4531,929.5,1121.4531,939.5,1125.4531,935.5,1121.4531" style="stroke:#A80036;stroke-width:1.0;"/><text fill="#000000" font-family="sans-serif" font-size="13" lengthAdjust="spacing" textLength="68" x="935.5" y="1103.5967">getGraphe()</text><line style="stroke:#A80036;stroke-width:1.0;stroke-dasharray:2.0,2.0;" x1="928.5" x2="970.5" y1="1161.8047" y2="1161.8047"/><line style="stroke:#A80036;stroke-width:1.0;stroke-dasharray:2.0,2.0;" x1="970.5" x2="970.5" y1="1161.8047" y2="1174.8047"/><line style="stroke:#A80036;stroke-width:1.0;stroke-dasharray:2.0,2.0;" x1="923.5" x2="970.5" y1="1174.8047" y2="1174.8047"/><polygon fill="#A80036" points="933.5,1170.8047,923.5,1174.8047,933.5,1178.8047,929.5,1174.8047" style="stroke:#A80036;stroke-width:1.0;"/><text fill="#000000" font-family="sans-serif" font-size="13" lengthAdjust="spacing" textLength="53" x="935.5" y="1156.9482">g:Graphe</text><polygon fill="#A80036" points="1026.5,1196.1563,1036.5,1200.1563,1026.5,1204.1563,1030.5,1200.1563" style="stroke:#A80036;stroke-width:1.0;"/><line style="stroke:#A80036;stroke-width:1.0;" x1="923.5" x2="1032.5" y1="1200.1563" y2="1200.1563"/><text fill="#000000" font-family="sans-serif" font-size="13" lengthAdjust="spacing" textLength="51" x="930.5" y="1195.2998">this(x, y)</text><polygon fill="#A80036" points="934.5,1226.5078,924.5,1230.5078,934.5,1234.5078,930.5,1230.5078" style="stroke:#A80036;stroke-width:1.0;"/><line style="stroke:#A80036;stroke-width:1.0;stroke-dasharray:2.0,2.0;" x1="928.5" x2="1037.5" y1="1230.5078" y2="1230.5078"/><text fill="#000000" font-family="sans-serif" font-size="13" lengthAdjust="spacing" textLength="82" x="940.5" y="1225.6514">soldier:Soldier</text><polygon fill="#A80036" points="567,1256.8594,557,1260.8594,567,1264.8594,563,1260.8594" style="stroke:#A80036;stroke-width:1.0;"/><line style="stroke:#A80036;stroke-width:1.0;" x1="561" x2="912.5" y1="1260.8594" y2="1260.8594"/><text fill="#000000" font-family="sans-serif" font-size="13" lengthAdjust="spacing" textLength="82" x="573" y="1256.0029">g.getTabGrid()</text><polygon fill="#A80036" points="901.5,1287.2109,911.5,1291.2109,901.5,1295.2109,905.5,1291.2109" style="stroke:#A80036;stroke-width:1.0;"/><line style="stroke:#A80036;stroke-width:1.0;stroke-dasharray:2.0,2.0;" x1="551" x2="907.5" y1="1291.2109" y2="1291.2109"/><text fill="#000000" font-family="sans-serif" font-size="13" lengthAdjust="spacing" textLength="118" x="558" y="1286.3545">tabGrid:Occupant[][]</text><polygon fill="#A80036" points="567,1317.5625,557,1321.5625,567,1325.5625,563,1321.5625" style="stroke:#A80036;stroke-width:1.0;"/><line style="stroke:#A80036;stroke-width:1.0;" x1="561" x2="912.5" y1="1321.5625" y2="1321.5625"/><text fill="#000000" font-family="sans-serif" font-size="13" lengthAdjust="spacing" textLength="170" x="573" y="1316.7061">tabGrid[x, y].getListFourmis()</text><polygon fill="#A80036" points="901.5,1347.9141,911.5,1351.9141,901.5,1355.9141,905.5,1351.9141" style="stroke:#A80036;stroke-width:1.0;"/><line style="stroke:#A80036;stroke-width:1.0;stroke-dasharray:2.0,2.0;" x1="551" x2="907.5" y1="1351.9141" y2="1351.9141"/><text fill="#000000" font-family="sans-serif" font-size="13" lengthAdjust="spacing" textLength="62" x="558" y="1347.0576">listF:Ant[*]</text><line style="stroke:#A80036;stroke-width:1.0;" x1="923.5" x2="965.5" y1="1382.2656" y2="1382.2656"/><line style="stroke:#A80036;stroke-width:1.0;" x1="965.5" x2="965.5" y1="1382.2656" y2="1395.2656"/><line style="stroke:#A80036;stroke-width:1.0;" x1="924.5" x2="965.5" y1="1395.2656" y2="1395.2656"/><polygon fill="#A80036" points="934.5,1391.2656,924.5,1395.2656,934.5,1399.2656,930.5,1395.2656" style="stroke:#A80036;stroke-width:1.0;"/><text fill="#000000" font-family="sans-serif" font-size="13" lengthAdjust="spacing" textLength="96" x="930.5" y="1377.4092">listF.add(soldier)</text><polygon fill="#A80036" points="399,1405.2656,389,1409.2656,399,1413.2656,395,1409.2656" style="stroke:#A80036;stroke-width:1.0;"/><line style="stroke:#A80036;stroke-width:1.0;stroke-dasharray:2.0,2.0;" x1="393" x2="917.5" y1="1409.2656" y2="1409.2656"/><polygon fill="#A80036" points="255.5,1419.2656,245.5,1423.2656,255.5,1427.2656,251.5,1423.2656" style="stroke:#A80036;stroke-width:1.0;"/><line style="stroke:#A80036;stroke-width:1.0;stroke-dasharray:2.0,2.0;" x1="249.5" x2="382" y1="1423.2656" y2="1423.2656"/><polygon fill="#A80036" points="125,1433.2656,115,1437.2656,125,1441.2656,121,1437.2656" style="stroke:#A80036;stroke-width:1.0;"/><line style="stroke:#A80036;stroke-width:1.0;stroke-dasharray:2.0,2.0;" x1="119" x2="238.5" y1="1437.2656" y2="1437.2656"/><polygon fill="#A80036" points="222.5,1463.6172,232.5,1467.6172,222.5,1471.6172,226.5,1467.6172" style="stroke:#A80036;stroke-width:1.0;"/><line style="stroke:#A80036;stroke-width:1.0;" x1="114" x2="228.5" y1="1467.6172" y2="1467.6172"/><text fill="#000000" font-family="sans-serif" font-size="13" lengthAdjust="spacing" textLength="32" x="121" y="1462.7607">play()</text><polygon fill="#A80036" points="366,1493.9688,376,1497.9688,366,1501.9688,370,1497.9688" style="stroke:#A80036;stroke-width:1.0;"/><line style="stroke:#A80036;stroke-width:1.0;" x1="244.5" x2="372" y1="1497.9688" y2="1497.9688"/><text fill="#000000" font-family="sans-serif" font-size="13" lengthAdjust="spacing" textLength="32" x="251.5" y="1493.1123">play()</text><polygon fill="#A80036" points="1164,1524.3203,1174,1528.3203,1164,1532.3203,1168,1528.3203" style="stroke:#A80036;stroke-width:1.0;"/><line style="stroke:#A80036;stroke-width:1.0;" x1="388" x2="1170" y1="1528.3203" y2="1528.3203"/><text fill="#000000" font-family="sans-serif" font-size="13" lengthAdjust="spacing" textLength="29" x="395" y="1523.4639">this()</text><polygon fill="#A80036" points="399,1554.6719,389,1558.6719,399,1562.6719,395,1558.6719" style="stroke:#A80036;stroke-width:1.0;"/><line style="stroke:#A80036;stroke-width:1.0;stroke-dasharray:2.0,2.0;" x1="393" x2="1180" y1="1558.6719" y2="1558.6719"/><text fill="#000000" font-family="sans-serif" font-size="13" lengthAdjust="spacing" textLength="70" x="405" y="1553.8154">bs:BitSet[][]</text><line style="stroke:#A80036;stroke-width:1.0;" x1="388" x2="435" y1="1584.0234" y2="1584.0234"/><line style="stroke:#A80036;stroke-width:1.0;" x1="435" x2="435" y1="1584.0234" y2="1597.0234"/><line style="stroke:#A80036;stroke-width:1.0;" x1="394" x2="435" y1="1597.0234" y2="1597.0234"/><polygon fill="#A80036" points="404,1593.0234,394,1597.0234,404,1601.0234,400,1597.0234" style="stroke:#A80036;stroke-width:1.0;"/><text fill="#000000" font-family="sans-serif" font-size="13" lengthAdjust="spacing" textLength="144" x="400" y="1579.167">refreshBitSet(bs, graphe)</text><polygon fill="#A80036" points="534,1628.375,544,1632.375,534,1636.375,538,1632.375" style="stroke:#A80036;stroke-width:1.0;"/><line style="stroke:#A80036;stroke-width:1.0;" x1="393" x2="540" y1="1632.375" y2="1632.375"/><text fill="#000000" font-family="sans-serif" font-size="13" lengthAdjust="spacing" textLength="94" x="400" y="1627.5186">getListFourmis()</text><polygon fill="#A80036" points="404,1658.7266,394,1662.7266,404,1666.7266,400,1662.7266" style="stroke:#A80036;stroke-width:1.0;"/><line style="stroke:#A80036;stroke-width:1.0;stroke-dasharray:2.0,2.0;" x1="398" x2="550" y1="1662.7266" y2="1662.7266"/><text fill="#000000" font-family="sans-serif" font-size="13" lengthAdjust="spacing" textLength="62" x="410" y="1657.8701">listF:Ant[*]</text><path d="M304,1677.7266 L377,1677.7266 L377,1685.7266 L367,1695.7266 L304,1695.7266 L304,1677.7266 " fill="#EEEEEE" style="stroke:#000000;stroke-width:1.0;"/><rect fill="none" height="95.0547" style="stroke:#000000;stroke-width:2.0;" width="785.5" x="304" y="1677.7266"/><text fill="#000000" font-family="sans-serif" font-size="13" font-weight="bold" lengthAdjust="spacing" textLength="28" x="319" y="1692.2217">loop</text><text fill="#000000" font-family="sans-serif" font-size="11" font-weight="bold" lengthAdjust="spacing" textLength="44" x="392" y="1691.1455">[f : listF]</text><path d="M314,1703.0781 L375,1703.0781 L375,1711.0781 L365,1721.0781 L314,1721.0781 L314,1703.0781 " fill="#EEEEEE" style="stroke:#000000;stroke-width:1.0;"/><rect fill="none" height="62.7031" style="stroke:#000000;stroke-width:2.0;" width="765.5" x="314" y="1703.0781"/><text fill="#000000" font-family="sans-serif" font-size="13" font-weight="bold" lengthAdjust="spacing" textLength="16" x="329" y="1717.5732">alt</text><text fill="#000000" font-family="sans-serif" font-size="11" font-weight="bold" lengthAdjust="spacing" textLength="115" x="390" y="1716.4971">[f instanceof Soldier]</text><polygon fill="#A80036" points="1021.5,1739.7813,1031.5,1743.7813,1021.5,1747.7813,1025.5,1743.7813" style="stroke:#A80036;stroke-width:1.0;"/><line style="stroke:#A80036;stroke-width:1.0;" x1="393" x2="1027.5" y1="1743.7813" y2="1743.7813"/><text fill="#000000" font-family="sans-serif" font-size="13" lengthAdjust="spacing" textLength="130" x="400" y="1738.9248">f.deplacementHasard()</text><polygon fill="#A80036" points="404,1753.7813,394,1757.7813,404,1761.7813,400,1757.7813" style="stroke:#A80036;stroke-width:1.0;"/><line style="stroke:#A80036;stroke-width:1.0;stroke-dasharray:2.0,2.0;" x1="398" x2="1037.5" y1="1757.7813" y2="1757.7813"/><line style="stroke:#A80036;stroke-width:1.0;stroke-dasharray:2.0,2.0;" x1="393" x2="435" y1="1790.7813" y2="1790.7813"/><line style="stroke:#A80036;stroke-width:1.0;stroke-dasharray:2.0,2.0;" x1="435" x2="435" y1="1790.7813" y2="1803.7813"/><line style="stroke:#A80036;stroke-width:1.0;stroke-dasharray:2.0,2.0;" x1="388" x2="435" y1="1803.7813" y2="1803.7813"/><polygon fill="#A80036" points="398,1799.7813,388,1803.7813,398,1807.7813,394,1803.7813" style="stroke:#A80036;stroke-width:1.0;"/><polygon fill="#A80036" points="1094.5,1825.1328,1104.5,1829.1328,1094.5,1833.1328,1098.5,1829.1328" style="stroke:#A80036;stroke-width:1.0;"/><line style="stroke:#A80036;stroke-width:1.0;" x1="388" x2="1100.5" y1="1829.1328" y2="1829.1328"/><text fill="#000000" font-family="sans-serif" font-size="13" lengthAdjust="spacing" textLength="47" x="395" y="1824.2764">update()</text><polygon fill="#A80036" points="399,1839.1328,389,1843.1328,399,1847.1328,395,1843.1328" style="stroke:#A80036;stroke-width:1.0;"/><line style="stroke:#A80036;stroke-width:1.0;stroke-dasharray:2.0,2.0;" x1="393" x2="1110.5" y1="1843.1328" y2="1843.1328"/><polygon fill="#A80036" points="255.5,1853.1328,245.5,1857.1328,255.5,1861.1328,251.5,1857.1328" style="stroke:#A80036;stroke-width:1.0;"/><line style="stroke:#A80036;stroke-width:1.0;stroke-dasharray:2.0,2.0;" x1="249.5" x2="382" y1="1857.1328" y2="1857.1328"/><polygon fill="#A80036" points="125,1867.1328,115,1871.1328,125,1875.1328,121,1871.1328" style="stroke:#A80036;stroke-width:1.0;"/><line style="stroke:#A80036;stroke-width:1.0;stroke-dasharray:2.0,2.0;" x1="119" x2="238.5" y1="1871.1328" y2="1871.1328"/><polygon fill="#A80036" points="40,1881.1328,30,1885.1328,40,1889.1328,36,1885.1328" style="stroke:#A80036;stroke-width:1.0;"/><line style="stroke:#A80036;stroke-width:1.0;stroke-dasharray:2.0,2.0;" x1="34" x2="103" y1="1885.1328" y2="1885.1328"/><!--MD5=[414cc80cb9276432098d2e662de09110]
@startuml
'https://plantuml.com/sequence-diagram

participant Main
participant MyOwnTest
participant AntFacadeController
participant GameController
participant Graphe
participant Occupant
participant Colony
participant Ant
participant Obstacle
participant Queen
participant Soldier
participant Display
participant BitSet

Main -> MyOwnTest ++ : run()
    MyOwnTest -> AntFacadeController ++ : createGrid()
        AntFacadeController -> GameController ++ : createGrid()
            GameController -> Graphe : this()
                Graphe -> Graphe ++ : fill()
                return
            Graphe - -> GameController : graphe:Graphe
        return
    return

    MyOwnTest -> AntFacadeController ++ : createColony()
        AntFacadeController -> GameController ++ : createColony()
            GameController -> Colony : this()
                Colony -> Queen : this()
                Queen - -> Colony
            Colony - -> GameController
        return
    return

    MyOwnTest -> AntFacadeController ++ : putObstacle()
        AntFacadeController -> GameController ++ : putObstacle()
            GameController -> Graphe ++ : contientFourmiliere()
            return b:Boolean
            alt NOT b
                GameController -> Obstacle : this()
                Obstacle - -> GameController
            end
        return
    return

    MyOwnTest -> AntFacadeController ++ : createSoldiers()
        AntFacadeController -> GameController ++ : createSoldiers()
            GameController -> Graphe ++ : getFourmiliere()
            return c:Colony
            GameController -> Colony ++ : c.getReine()
            return q:Queen
            GameController -> Queen ++: q.donnerVie()
                Queen -> Queen ++ : getX()
                return x:Integer
                Queen -> Queen ++ : getY()
                return y:Integer
                Queen -> Queen ++ : getGraphe()
                return g:Graphe
                Queen -> Soldier : this(x, y)
                Soldier - -> Queen : soldier:Soldier
                Queen -> Graphe ++ : g.getTabGrid()
                return tabGrid:Occupant[][]
                Queen -> Graphe ++ : tabGrid[x, y].getListFourmis()
                return listF:Ant[*]
                Queen -> Queen : listF.add(soldier)
            return
        return
    return

    MyOwnTest -> AntFacadeController ++ : play()
        AntFacadeController -> GameController ++ : play()
            GameController -> BitSet ++ : this()
            return bs:BitSet[][]
            GameController -> GameController ++ : refreshBitSet(bs, graphe)
                GameController -> Graphe ++ : getListFourmis()
                return listF:Ant[*]
                loop f : listF
                    alt f instanceof Soldier
                        GameController -> Soldier ++ : f.deplacementHasard()
                        return
                    end
                end
                return
            GameController -> Display ++ : update()
            return
        return
    return

MyOwnTest - -> Main

@enduml

@startuml

participant Main
participant MyOwnTest
participant AntFacadeController
participant GameController
participant Graphe
participant Occupant
participant Colony
participant Ant
participant Obstacle
participant Queen
participant Soldier
participant Display
participant BitSet

Main -> MyOwnTest ++ : run()
    MyOwnTest -> AntFacadeController ++ : createGrid()
        AntFacadeController -> GameController ++ : createGrid()
            GameController -> Graphe : this()
                Graphe -> Graphe ++ : fill()
                return
            Graphe - -> GameController : graphe:Graphe
        return
    return

    MyOwnTest -> AntFacadeController ++ : createColony()
        AntFacadeController -> GameController ++ : createColony()
            GameController -> Colony : this()
                Colony -> Queen : this()
                Queen - -> Colony
            Colony - -> GameController
        return
    return

    MyOwnTest -> AntFacadeController ++ : putObstacle()
        AntFacadeController -> GameController ++ : putObstacle()
            GameController -> Graphe ++ : contientFourmiliere()
            return b:Boolean
            alt NOT b
                GameController -> Obstacle : this()
                Obstacle - -> GameController
            end
        return
    return

    MyOwnTest -> AntFacadeController ++ : createSoldiers()
        AntFacadeController -> GameController ++ : createSoldiers()
            GameController -> Graphe ++ : getFourmiliere()
            return c:Colony
            GameController -> Colony ++ : c.getReine()
            return q:Queen
            GameController -> Queen ++: q.donnerVie()
                Queen -> Queen ++ : getX()
                return x:Integer
                Queen -> Queen ++ : getY()
                return y:Integer
                Queen -> Queen ++ : getGraphe()
                return g:Graphe
                Queen -> Soldier : this(x, y)
                Soldier - -> Queen : soldier:Soldier
                Queen -> Graphe ++ : g.getTabGrid()
                return tabGrid:Occupant[][]
                Queen -> Graphe ++ : tabGrid[x, y].getListFourmis()
                return listF:Ant[*]
                Queen -> Queen : listF.add(soldier)
            return
        return
    return

    MyOwnTest -> AntFacadeController ++ : play()
        AntFacadeController -> GameController ++ : play()
            GameController -> BitSet ++ : this()
            return bs:BitSet[][]
            GameController -> GameController ++ : refreshBitSet(bs, graphe)
                GameController -> Graphe ++ : getListFourmis()
                return listF:Ant[*]
                loop f : listF
                    alt f instanceof Soldier
                        GameController -> Soldier ++ : f.deplacementHasard()
                        return
                    end
                end
                return
            GameController -> Display ++ : update()
            return
        return
    return

MyOwnTest - -> Main

@enduml

PlantUML version 1.2021.5(Sun Apr 25 13:20:28 CEST 2021)
(GPL source distribution)
Java Runtime: OpenJDK Runtime Environment
JVM: Dynamic Code Evolution 64-Bit Server VM
Default Encoding: Cp1252
Language: fr
Country: FR
--></g></svg>