<?xml version="1.0" encoding="UTF-8" standalone="no"?><svg xmlns="http://www.w3.org/2000/svg" xmlns:xlink="http://www.w3.org/1999/xlink" contentScriptType="application/ecmascript" contentStyleType="text/css" height="849px" preserveAspectRatio="none" style="width:679px;height:849px;" version="1.1" viewBox="0 0 679 849" width="679px" zoomAndPan="magnify"><defs><filter height="300%" id="f1j7jled44bl0e" width="300%" x="-1" y="-1"><feGaussianBlur result="blurOut" stdDeviation="2.0"/><feColorMatrix in="blurOut" result="blurOut2" type="matrix" values="0 0 0 0 0 0 0 0 0 0 0 0 0 0 0 0 0 0 .4 0"/><feOffset dx="4.0" dy="4.0" in="blurOut2" result="blurOut3"/><feBlend in="SourceGraphic" in2="blurOut3" mode="normal"/></filter></defs><g><!--MD5=[10c50c2e3150e634e5ce95ceba89a534]
class Ant--><rect codeLine="3" fill="#FEFECE" filter="url(#f1j7jled44bl0e)" height="60.8047" id="Ant" style="stroke:#A80036;stroke-width:1.5;" width="53" x="225" y="512"/><ellipse cx="240" cy="528" fill="#A9DCDF" rx="11" ry="11" style="stroke:#A80036;stroke-width:1.0;"/><path d="M240.1094,523.2969 L238.9531,528.625 L241.2813,528.625 L240.1094,523.2969 Z M238.625,520.75 L241.6094,520.75 L244.9688,533.75 L242.5156,533.75 L241.75,530.75 L238.4688,530.75 L237.7188,533.75 L235.2813,533.75 L238.625,520.75 Z " fill="#000000"/><text fill="#000000" font-family="sans-serif" font-size="12" font-style="italic" lengthAdjust="spacing" textLength="21" x="254" y="532.1543">Ant</text><line style="stroke:#A80036;stroke-width:1.5;" x1="226" x2="277" y1="544" y2="544"/><text fill="#000000" font-family="sans-serif" font-size="11" lengthAdjust="spacing" textLength="37" x="231" y="558.2104">colony</text><line style="stroke:#A80036;stroke-width:1.5;" x1="226" x2="277" y1="564.8047" y2="564.8047"/><!--MD5=[e437689f509b2941bd7ef5d5d6c3ce24]
class Occupant--><rect codeLine="46" fill="#FEFECE" filter="url(#f1j7jled44bl0e)" height="73.6094" id="Occupant" style="stroke:#A80036;stroke-width:1.5;" width="91" x="410" y="176"/><ellipse cx="425" cy="192" fill="#ADD1B2" rx="11" ry="11" style="stroke:#A80036;stroke-width:1.0;"/><path d="M427.4688,197.875 Q426.8906,198.1875 426.25,198.3438 Q425.6094,198.5 424.9063,198.5 Q422.4063,198.5 421.0781,196.8281 Q419.7656,195.1563 419.7656,192 Q419.7656,188.8438 421.0781,187.1719 Q422.4063,185.5 424.9063,185.5 Q425.6094,185.5 426.25,185.6563 Q426.9063,185.8125 427.4688,186.125 L427.4688,188.9219 Q426.8438,188.3594 426.25,188.0938 Q425.6563,187.8125 425.0313,187.8125 Q423.6875,187.8125 423,188.875 Q422.3125,189.9375 422.3125,192 Q422.3125,194.0781 423,195.1406 Q423.6875,196.1875 425.0313,196.1875 Q425.6563,196.1875 426.25,195.9219 Q426.8438,195.6563 427.4688,195.0781 L427.4688,197.875 Z " fill="#000000"/><text fill="#000000" font-family="sans-serif" font-size="12" lengthAdjust="spacing" textLength="59" x="439" y="196.1543">Occupant</text><line style="stroke:#A80036;stroke-width:1.5;" x1="411" x2="500" y1="208" y2="208"/><text fill="#000000" font-family="sans-serif" font-size="11" lengthAdjust="spacing" textLength="7" x="416" y="222.2104">x</text><text fill="#000000" font-family="sans-serif" font-size="11" lengthAdjust="spacing" textLength="7" x="416" y="235.0151">y</text><line style="stroke:#A80036;stroke-width:1.5;" x1="411" x2="500" y1="241.6094" y2="241.6094"/><!--MD5=[e17fa84612cd31b11e01736fde1f3a71]
class Colony--><rect codeLine="8" fill="#FEFECE" filter="url(#f1j7jled44bl0e)" height="73.6094" id="Colony" style="stroke:#A80036;stroke-width:1.5;" width="119" x="194" y="317"/><ellipse cx="230.15" cy="333" fill="#ADD1B2" rx="11" ry="11" style="stroke:#A80036;stroke-width:1.0;"/><path d="M232.6188,338.875 Q232.0406,339.1875 231.4,339.3438 Q230.7594,339.5 230.0563,339.5 Q227.5563,339.5 226.2281,337.8281 Q224.9156,336.1563 224.9156,333 Q224.9156,329.8438 226.2281,328.1719 Q227.5563,326.5 230.0563,326.5 Q230.7594,326.5 231.4,326.6563 Q232.0563,326.8125 232.6188,327.125 L232.6188,329.9219 Q231.9938,329.3594 231.4,329.0938 Q230.8063,328.8125 230.1813,328.8125 Q228.8375,328.8125 228.15,329.875 Q227.4625,330.9375 227.4625,333 Q227.4625,335.0781 228.15,336.1406 Q228.8375,337.1875 230.1813,337.1875 Q230.8063,337.1875 231.4,336.9219 Q231.9938,336.6563 232.6188,336.0781 L232.6188,338.875 Z " fill="#000000"/><text fill="#000000" font-family="sans-serif" font-size="12" lengthAdjust="spacing" textLength="40" x="248.85" y="337.1543">Colony</text><line style="stroke:#A80036;stroke-width:1.5;" x1="195" x2="312" y1="349" y2="349"/><text fill="#000000" font-family="sans-serif" font-size="11" lengthAdjust="spacing" textLength="107" x="200" y="363.2104">pheromoneDeposit</text><text fill="#000000" font-family="sans-serif" font-size="11" lengthAdjust="spacing" textLength="88" x="200" y="376.0151">foodWithdrawal</text><line style="stroke:#A80036;stroke-width:1.5;" x1="195" x2="312" y1="382.6094" y2="382.6094"/><!--MD5=[292033ffe4750640675b59034298e578]
class Display--><rect codeLine="14" fill="#FEFECE" filter="url(#f1j7jled44bl0e)" height="48" id="Display" style="stroke:#A80036;stroke-width:1.5;" width="75" x="536" y="189"/><ellipse cx="551" cy="205" fill="#ADD1B2" rx="11" ry="11" style="stroke:#A80036;stroke-width:1.0;"/><path d="M553.4688,210.875 Q552.8906,211.1875 552.25,211.3438 Q551.6094,211.5 550.9063,211.5 Q548.4063,211.5 547.0781,209.8281 Q545.7656,208.1563 545.7656,205 Q545.7656,201.8438 547.0781,200.1719 Q548.4063,198.5 550.9063,198.5 Q551.6094,198.5 552.25,198.6563 Q552.9063,198.8125 553.4688,199.125 L553.4688,201.9219 Q552.8438,201.3594 552.25,201.0938 Q551.6563,200.8125 551.0313,200.8125 Q549.6875,200.8125 549,201.875 Q548.3125,202.9375 548.3125,205 Q548.3125,207.0781 549,208.1406 Q549.6875,209.1875 551.0313,209.1875 Q551.6563,209.1875 552.25,208.9219 Q552.8438,208.6563 553.4688,208.0781 L553.4688,210.875 Z " fill="#000000"/><text fill="#000000" font-family="sans-serif" font-size="12" lengthAdjust="spacing" textLength="43" x="565" y="209.1543">Display</text><line style="stroke:#A80036;stroke-width:1.5;" x1="537" x2="610" y1="221" y2="221"/><line style="stroke:#A80036;stroke-width:1.5;" x1="537" x2="610" y1="229" y2="229"/><!--MD5=[5b4460e97222b45c9cf25eacd4639dbc]
class Food--><rect codeLine="19" fill="#FEFECE" filter="url(#f1j7jled44bl0e)" height="60.8047" id="Food" style="stroke:#A80036;stroke-width:1.5;" width="61" x="548" y="775"/><ellipse cx="563" cy="791" fill="#ADD1B2" rx="11" ry="11" style="stroke:#A80036;stroke-width:1.0;"/><path d="M565.4688,796.875 Q564.8906,797.1875 564.25,797.3438 Q563.6094,797.5 562.9063,797.5 Q560.4063,797.5 559.0781,795.8281 Q557.7656,794.1563 557.7656,791 Q557.7656,787.8438 559.0781,786.1719 Q560.4063,784.5 562.9063,784.5 Q563.6094,784.5 564.25,784.6563 Q564.9063,784.8125 565.4688,785.125 L565.4688,787.9219 Q564.8438,787.3594 564.25,787.0938 Q563.6563,786.8125 563.0313,786.8125 Q561.6875,786.8125 561,787.875 Q560.3125,788.9375 560.3125,791 Q560.3125,793.0781 561,794.1406 Q561.6875,795.1875 563.0313,795.1875 Q563.6563,795.1875 564.25,794.9219 Q564.8438,794.6563 565.4688,794.0781 L565.4688,796.875 Z " fill="#000000"/><text fill="#000000" font-family="sans-serif" font-size="12" lengthAdjust="spacing" textLength="29" x="577" y="795.1543">Food</text><line style="stroke:#A80036;stroke-width:1.5;" x1="549" x2="608" y1="807" y2="807"/><text fill="#000000" font-family="sans-serif" font-size="11" lengthAdjust="spacing" textLength="46" x="554" y="821.2104">quantity</text><line style="stroke:#A80036;stroke-width:1.5;" x1="549" x2="608" y1="827.8047" y2="827.8047"/><!--MD5=[82d9c97a467af7c0b2c072e754b85475]
class GameController--><rect codeLine="24" fill="#FEFECE" filter="url(#f1j7jled44bl0e)" height="86.4141" id="GameController" style="stroke:#A80036;stroke-width:1.5;" width="125" x="215" y="7"/><ellipse cx="230" cy="23" fill="#ADD1B2" rx="11" ry="11" style="stroke:#A80036;stroke-width:1.0;"/><path d="M232.4688,28.875 Q231.8906,29.1875 231.25,29.3438 Q230.6094,29.5 229.9063,29.5 Q227.4063,29.5 226.0781,27.8281 Q224.7656,26.1563 224.7656,23 Q224.7656,19.8438 226.0781,18.1719 Q227.4063,16.5 229.9063,16.5 Q230.6094,16.5 231.25,16.6563 Q231.9063,16.8125 232.4688,17.125 L232.4688,19.9219 Q231.8438,19.3594 231.25,19.0938 Q230.6563,18.8125 230.0313,18.8125 Q228.6875,18.8125 228,19.875 Q227.3125,20.9375 227.3125,23 Q227.3125,25.0781 228,26.1406 Q228.6875,27.1875 230.0313,27.1875 Q230.6563,27.1875 231.25,26.9219 Q231.8438,26.6563 232.4688,26.0781 L232.4688,28.875 Z " fill="#000000"/><text fill="#000000" font-family="sans-serif" font-size="12" lengthAdjust="spacing" textLength="93" x="244" y="27.1543">GameController</text><line style="stroke:#A80036;stroke-width:1.5;" x1="216" x2="339" y1="39" y2="39"/><text fill="#000000" font-family="sans-serif" font-size="11" lengthAdjust="spacing" textLength="40" x="221" y="53.2104">graphe</text><text fill="#000000" font-family="sans-serif" font-size="11" lengthAdjust="spacing" textLength="23" x="221" y="66.0151">rdm</text><text fill="#000000" font-family="sans-serif" font-size="11" lengthAdjust="spacing" textLength="105" x="221" y="78.8198">evaporationParam</text><line style="stroke:#A80036;stroke-width:1.5;" x1="216" x2="339" y1="85.4141" y2="85.4141"/><!--MD5=[af0a8305a588b84ac555c67f9d0f0fdf]
class Graphe--><rect codeLine="31" fill="#FEFECE" filter="url(#f1j7jled44bl0e)" height="86.4141" id="Graphe" style="stroke:#A80036;stroke-width:1.5;" width="99" x="217" y="170"/><ellipse cx="242.35" cy="186" fill="#ADD1B2" rx="11" ry="11" style="stroke:#A80036;stroke-width:1.0;"/><path d="M244.8188,191.875 Q244.2406,192.1875 243.6,192.3438 Q242.9594,192.5 242.2563,192.5 Q239.7563,192.5 238.4281,190.8281 Q237.1156,189.1563 237.1156,186 Q237.1156,182.8438 238.4281,181.1719 Q239.7563,179.5 242.2563,179.5 Q242.9594,179.5 243.6,179.6563 Q244.2563,179.8125 244.8188,180.125 L244.8188,182.9219 Q244.1938,182.3594 243.6,182.0938 Q243.0063,181.8125 242.3813,181.8125 Q241.0375,181.8125 240.35,182.875 Q239.6625,183.9375 239.6625,186 Q239.6625,188.0781 240.35,189.1406 Q241.0375,190.1875 242.3813,190.1875 Q243.0063,190.1875 243.6,189.9219 Q244.1938,189.6563 244.8188,189.0781 L244.8188,191.875 Z " fill="#000000"/><text fill="#000000" font-family="sans-serif" font-size="12" lengthAdjust="spacing" textLength="44" x="258.65" y="190.1543">Graphe</text><line style="stroke:#A80036;stroke-width:1.5;" x1="218" x2="315" y1="202" y2="202"/><text fill="#000000" font-family="sans-serif" font-size="11" lengthAdjust="spacing" textLength="42" x="223" y="216.2104">tabGrid</text><text fill="#000000" font-family="sans-serif" font-size="11" lengthAdjust="spacing" textLength="41" x="223" y="229.0151">listAnts</text><text fill="#000000" font-family="sans-serif" font-size="11" lengthAdjust="spacing" textLength="87" x="223" y="241.8198">listPheromones</text><line style="stroke:#A80036;stroke-width:1.5;" x1="218" x2="315" y1="248.4141" y2="248.4141"/><!--MD5=[84718776d214be480e4c259efcb737fc]
class Main--><rect codeLine="38" fill="#FEFECE" filter="url(#f1j7jled44bl0e)" height="48" id="Main" style="stroke:#A80036;stroke-width:1.5;" width="60" x="30.5" y="26"/><ellipse cx="45.5" cy="42" fill="#ADD1B2" rx="11" ry="11" style="stroke:#A80036;stroke-width:1.0;"/><path d="M47.9688,47.875 Q47.3906,48.1875 46.75,48.3438 Q46.1094,48.5 45.4063,48.5 Q42.9063,48.5 41.5781,46.8281 Q40.2656,45.1563 40.2656,42 Q40.2656,38.8438 41.5781,37.1719 Q42.9063,35.5 45.4063,35.5 Q46.1094,35.5 46.75,35.6563 Q47.4063,35.8125 47.9688,36.125 L47.9688,38.9219 Q47.3438,38.3594 46.75,38.0938 Q46.1563,37.8125 45.5313,37.8125 Q44.1875,37.8125 43.5,38.875 Q42.8125,39.9375 42.8125,42 Q42.8125,44.0781 43.5,45.1406 Q44.1875,46.1875 45.5313,46.1875 Q46.1563,46.1875 46.75,45.9219 Q47.3438,45.6563 47.9688,45.0781 L47.9688,47.875 Z " fill="#000000"/><text fill="#000000" font-family="sans-serif" font-size="12" lengthAdjust="spacing" textLength="28" x="59.5" y="46.1543">Main</text><line style="stroke:#A80036;stroke-width:1.5;" x1="31.5" x2="89.5" y1="58" y2="58"/><line style="stroke:#A80036;stroke-width:1.5;" x1="31.5" x2="89.5" y1="66" y2="66"/><!--MD5=[23868d926b4091f874f65c50fc3e197e]
class Obstacle--><rect codeLine="42" fill="#FEFECE" filter="url(#f1j7jled44bl0e)" height="48" id="Obstacle" style="stroke:#A80036;stroke-width:1.5;" width="84" x="581.5" y="330"/><ellipse cx="596.5" cy="346" fill="#ADD1B2" rx="11" ry="11" style="stroke:#A80036;stroke-width:1.0;"/><path d="M598.9688,351.875 Q598.3906,352.1875 597.75,352.3438 Q597.1094,352.5 596.4063,352.5 Q593.9063,352.5 592.5781,350.8281 Q591.2656,349.1563 591.2656,346 Q591.2656,342.8438 592.5781,341.1719 Q593.9063,339.5 596.4063,339.5 Q597.1094,339.5 597.75,339.6563 Q598.4063,339.8125 598.9688,340.125 L598.9688,342.9219 Q598.3438,342.3594 597.75,342.0938 Q597.1563,341.8125 596.5313,341.8125 Q595.1875,341.8125 594.5,342.875 Q593.8125,343.9375 593.8125,346 Q593.8125,348.0781 594.5,349.1406 Q595.1875,350.1875 596.5313,350.1875 Q597.1563,350.1875 597.75,349.9219 Q598.3438,349.6563 598.9688,349.0781 L598.9688,351.875 Z " fill="#000000"/><text fill="#000000" font-family="sans-serif" font-size="12" lengthAdjust="spacing" textLength="52" x="610.5" y="350.1543">Obstacle</text><line style="stroke:#A80036;stroke-width:1.5;" x1="582.5" x2="664.5" y1="362" y2="362"/><line style="stroke:#A80036;stroke-width:1.5;" x1="582.5" x2="664.5" y1="370" y2="370"/><!--MD5=[03a8d271f23acb716d928fdb53328ac5]
class Pheromone--><rect codeLine="52" fill="#FEFECE" filter="url(#f1j7jled44bl0e)" height="60.8047" id="Pheromone" style="stroke:#A80036;stroke-width:1.5;" width="100" x="405.5" y="421"/><ellipse cx="420.5" cy="437" fill="#ADD1B2" rx="11" ry="11" style="stroke:#A80036;stroke-width:1.0;"/><path d="M422.9688,442.875 Q422.3906,443.1875 421.75,443.3438 Q421.1094,443.5 420.4063,443.5 Q417.9063,443.5 416.5781,441.8281 Q415.2656,440.1563 415.2656,437 Q415.2656,433.8438 416.5781,432.1719 Q417.9063,430.5 420.4063,430.5 Q421.1094,430.5 421.75,430.6563 Q422.4063,430.8125 422.9688,431.125 L422.9688,433.9219 Q422.3438,433.3594 421.75,433.0938 Q421.1563,432.8125 420.5313,432.8125 Q419.1875,432.8125 418.5,433.875 Q417.8125,434.9375 417.8125,437 Q417.8125,439.0781 418.5,440.1406 Q419.1875,441.1875 420.5313,441.1875 Q421.1563,441.1875 421.75,440.9219 Q422.3438,440.6563 422.9688,440.0781 L422.9688,442.875 Z " fill="#000000"/><text fill="#000000" font-family="sans-serif" font-size="12" lengthAdjust="spacing" textLength="68" x="434.5" y="441.1543">Pheromone</text><line style="stroke:#A80036;stroke-width:1.5;" x1="406.5" x2="504.5" y1="453" y2="453"/><text fill="#000000" font-family="sans-serif" font-size="11" lengthAdjust="spacing" textLength="46" x="411.5" y="467.2104">quantity</text><line style="stroke:#A80036;stroke-width:1.5;" x1="406.5" x2="504.5" y1="473.8047" y2="473.8047"/><!--MD5=[b5524c1f1cf4f7aeecdc9b5af5b05d87]
class Queen--><rect codeLine="57" fill="#FEFECE" filter="url(#f1j7jled44bl0e)" height="48" id="Queen" style="stroke:#A80036;stroke-width:1.5;" width="71" x="114" y="781.5"/><ellipse cx="129" cy="797.5" fill="#ADD1B2" rx="11" ry="11" style="stroke:#A80036;stroke-width:1.0;"/><path d="M131.4688,803.375 Q130.8906,803.6875 130.25,803.8438 Q129.6094,804 128.9063,804 Q126.4063,804 125.0781,802.3281 Q123.7656,800.6563 123.7656,797.5 Q123.7656,794.3438 125.0781,792.6719 Q126.4063,791 128.9063,791 Q129.6094,791 130.25,791.1563 Q130.9063,791.3125 131.4688,791.625 L131.4688,794.4219 Q130.8438,793.8594 130.25,793.5938 Q129.6563,793.3125 129.0313,793.3125 Q127.6875,793.3125 127,794.375 Q126.3125,795.4375 126.3125,797.5 Q126.3125,799.5781 127,800.6406 Q127.6875,801.6875 129.0313,801.6875 Q129.6563,801.6875 130.25,801.4219 Q130.8438,801.1563 131.4688,800.5781 L131.4688,803.375 Z " fill="#000000"/><text fill="#000000" font-family="sans-serif" font-size="12" lengthAdjust="spacing" textLength="39" x="143" y="801.6543">Queen</text><line style="stroke:#A80036;stroke-width:1.5;" x1="115" x2="184" y1="813.5" y2="813.5"/><line style="stroke:#A80036;stroke-width:1.5;" x1="115" x2="184" y1="821.5" y2="821.5"/><!--MD5=[63349c2b1e3781ea70623bd904e0e8ca]
class Save--><rect codeLine="61" fill="#FEFECE" filter="url(#f1j7jled44bl0e)" height="60.8047" id="Save" style="stroke:#A80036;stroke-width:1.5;" width="61" x="7" y="182.5"/><ellipse cx="22" cy="198.5" fill="#ADD1B2" rx="11" ry="11" style="stroke:#A80036;stroke-width:1.0;"/><path d="M24.4688,204.375 Q23.8906,204.6875 23.25,204.8438 Q22.6094,205 21.9063,205 Q19.4063,205 18.0781,203.3281 Q16.7656,201.6563 16.7656,198.5 Q16.7656,195.3438 18.0781,193.6719 Q19.4063,192 21.9063,192 Q22.6094,192 23.25,192.1563 Q23.9063,192.3125 24.4688,192.625 L24.4688,195.4219 Q23.8438,194.8594 23.25,194.5938 Q22.6563,194.3125 22.0313,194.3125 Q20.6875,194.3125 20,195.375 Q19.3125,196.4375 19.3125,198.5 Q19.3125,200.5781 20,201.6406 Q20.6875,202.6875 22.0313,202.6875 Q22.6563,202.6875 23.25,202.4219 Q23.8438,202.1563 24.4688,201.5781 L24.4688,204.375 Z " fill="#000000"/><text fill="#000000" font-family="sans-serif" font-size="12" lengthAdjust="spacing" textLength="29" x="36" y="202.6543">Save</text><line style="stroke:#A80036;stroke-width:1.5;" x1="8" x2="67" y1="214.5" y2="214.5"/><text fill="#000000" font-family="sans-serif" font-size="11" lengthAdjust="spacing" textLength="45" x="13" y="228.7104">fileSave</text><line style="stroke:#A80036;stroke-width:1.5;" x1="8" x2="67" y1="235.3047" y2="235.3047"/><!--MD5=[ab18ab109d20d07a46d8dcc7319a218d]
class Soldier--><rect codeLine="66" fill="#FEFECE" filter="url(#f1j7jled44bl0e)" height="48" id="Soldier" style="stroke:#A80036;stroke-width:1.5;" width="73" x="119" y="650"/><ellipse cx="134" cy="666" fill="#ADD1B2" rx="11" ry="11" style="stroke:#A80036;stroke-width:1.0;"/><path d="M136.4688,671.875 Q135.8906,672.1875 135.25,672.3438 Q134.6094,672.5 133.9063,672.5 Q131.4063,672.5 130.0781,670.8281 Q128.7656,669.1563 128.7656,666 Q128.7656,662.8438 130.0781,661.1719 Q131.4063,659.5 133.9063,659.5 Q134.6094,659.5 135.25,659.6563 Q135.9063,659.8125 136.4688,660.125 L136.4688,662.9219 Q135.8438,662.3594 135.25,662.0938 Q134.6563,661.8125 134.0313,661.8125 Q132.6875,661.8125 132,662.875 Q131.3125,663.9375 131.3125,666 Q131.3125,668.0781 132,669.1406 Q132.6875,670.1875 134.0313,670.1875 Q134.6563,670.1875 135.25,669.9219 Q135.8438,669.6563 136.4688,669.0781 L136.4688,671.875 Z " fill="#000000"/><text fill="#000000" font-family="sans-serif" font-size="12" lengthAdjust="spacing" textLength="41" x="148" y="670.1543">Soldier</text><line style="stroke:#A80036;stroke-width:1.5;" x1="120" x2="191" y1="682" y2="682"/><line style="stroke:#A80036;stroke-width:1.5;" x1="120" x2="191" y1="690" y2="690"/><!--MD5=[7b5bd88a8a025decccf0c9eac4aaabe9]
class Worker--><rect codeLine="70" fill="#FEFECE" filter="url(#f1j7jled44bl0e)" height="60.8047" id="Worker" style="stroke:#A80036;stroke-width:1.5;" width="75" x="299" y="775"/><ellipse cx="314" cy="791" fill="#ADD1B2" rx="11" ry="11" style="stroke:#A80036;stroke-width:1.0;"/><path d="M316.4688,796.875 Q315.8906,797.1875 315.25,797.3438 Q314.6094,797.5 313.9063,797.5 Q311.4063,797.5 310.0781,795.8281 Q308.7656,794.1563 308.7656,791 Q308.7656,787.8438 310.0781,786.1719 Q311.4063,784.5 313.9063,784.5 Q314.6094,784.5 315.25,784.6563 Q315.9063,784.8125 316.4688,785.125 L316.4688,787.9219 Q315.8438,787.3594 315.25,787.0938 Q314.6563,786.8125 314.0313,786.8125 Q312.6875,786.8125 312,787.875 Q311.3125,788.9375 311.3125,791 Q311.3125,793.0781 312,794.1406 Q312.6875,795.1875 314.0313,795.1875 Q314.6563,795.1875 315.25,794.9219 Q315.8438,794.6563 316.4688,794.0781 L316.4688,796.875 Z " fill="#000000"/><text fill="#000000" font-family="sans-serif" font-size="12" lengthAdjust="spacing" textLength="43" x="328" y="795.1543">Worker</text><line style="stroke:#A80036;stroke-width:1.5;" x1="300" x2="373" y1="807" y2="807"/><text fill="#000000" font-family="sans-serif" font-size="11" lengthAdjust="spacing" textLength="40" x="305" y="821.2104">carried</text><line style="stroke:#A80036;stroke-width:1.5;" x1="300" x2="373" y1="827.8047" y2="827.8047"/><!--MD5=[f5a78ffb6213749a646b71e996e47ce9]
reverse link Occupant to Ant--><path d="M447.66,270.18 C436.93,328.88 412.69,420.77 360.5,482 C338.68,507.6 302.98,524.09 278.41,533.07 " fill="none" id="Occupant-backto-Ant" style="stroke:#A80036;stroke-width:1.0;"/><polygon fill="none" points="440.8,268.74,451.03,250.18,454.61,271.06,440.8,268.74" style="stroke:#A80036;stroke-width:1.0;"/><!--MD5=[99e6c3c53adf2ed663bee9469c9a690a]
reverse link Occupant to Colony--><path d="M393.23,256.85 C365.3,276.07 332.73,298.48 306.06,316.84 " fill="none" id="Occupant-backto-Colony" style="stroke:#A80036;stroke-width:1.0;"/><polygon fill="none" points="389.47,250.94,409.92,245.37,397.41,262.47,389.47,250.94" style="stroke:#A80036;stroke-width:1.0;"/><!--MD5=[8946f555192dfcebc5704d50de6d9592]
reverse link Occupant to Food--><path d="M498.3,266.7 C514.23,291.4 528.5,322.14 528.5,353 C528.5,353 528.5,353 528.5,675 C528.5,711.15 545.67,749.4 559.88,774.87 " fill="none" id="Occupant-backto-Food" style="stroke:#A80036;stroke-width:1.0;"/><polygon fill="none" points="492.54,270.67,486.88,250.25,504.04,262.69,492.54,270.67" style="stroke:#A80036;stroke-width:1.0;"/><!--MD5=[a9acbaa25ffda6a0f055490074614b6d]
reverse link Occupant to Obstacle--><path d="M517.89,257.31 C530.27,266.47 542.99,276.31 554.5,286 C570.85,299.76 588.1,316.51 601.26,329.82 " fill="none" id="Occupant-backto-Obstacle" style="stroke:#A80036;stroke-width:1.0;"/><polygon fill="none" points="513.44,262.72,501.37,245.31,521.67,251.4,513.44,262.72" style="stroke:#A80036;stroke-width:1.0;"/><!--MD5=[e2e2eb349bf0416d8006e60339ea3200]
reverse link Occupant to Pheromone--><path d="M455.5,270.41 C455.5,317.6 455.5,383.08 455.5,420.69 " fill="none" id="Occupant-backto-Pheromone" style="stroke:#A80036;stroke-width:1.0;"/><polygon fill="none" points="448.5,270.18,455.5,250.18,462.5,270.18,448.5,270.18" style="stroke:#A80036;stroke-width:1.0;"/><!--MD5=[e328c16c177ae1fede888adf58d4460f]
reverse link Ant to Queen--><path d="M256.71,593.03 C258.86,636.02 256.13,698.5 229.5,745 C219.35,762.72 201.56,776.75 185.33,786.72 " fill="none" id="Ant-backto-Queen" style="stroke:#A80036;stroke-width:1.0;"/><polygon fill="none" points="249.72,593.53,255.29,573.08,263.69,592.53,249.72,593.53" style="stroke:#A80036;stroke-width:1.0;"/><!--MD5=[aa722b09dfa1cf5a63ede336d4349abe]
reverse link Ant to Soldier--><path d="M217.37,589.54 C202.21,609.99 185.04,633.15 172.64,649.88 " fill="none" id="Ant-backto-Soldier" style="stroke:#A80036;stroke-width:1.0;"/><polygon fill="none" points="211.94,585.11,229.48,573.21,223.19,593.45,211.94,585.11" style="stroke:#A80036;stroke-width:1.0;"/><!--MD5=[c8892067b2ec4d30e44d5d5d2177d5b0]
reverse link Ant to Worker--><path d="M273.18,591.72 C274.7,595.51 276.16,599.3 277.5,603 C299.28,662.96 318.85,735.1 329.06,774.75 " fill="none" id="Ant-backto-Worker" style="stroke:#A80036;stroke-width:1.0;"/><polygon fill="none" points="266.68,594.31,265.35,573.16,279.57,588.87,266.68,594.31" style="stroke:#A80036;stroke-width:1.0;"/><!--MD5=[21fe37a5920d9509267d1cefb1e97c38]
link Main to GameController--><path codeLine="75" d="M90.67,50 C122.58,50 173.84,50 214.61,50 " fill="none" id="Main-GameController" style="stroke:#A80036;stroke-width:1.0;"/><polygon fill="#000000" points="117.75,38.5664,108.7049,35.6275,108.7049,41.5053,117.75,38.5664" style="stroke:#000000;stroke-width:1.0;"/><text fill="#000000" font-family="sans-serif" font-size="13" lengthAdjust="spacing" textLength="75" x="121.75" y="43.0669">lance le jeu</text><!--MD5=[e7a7ee5366611f2db02e01a8f6945679]
link GameController to Graphe--><path codeLine="76" d="M274.61,93.3 C272.99,116.97 270.98,146.36 269.37,169.98 " fill="none" id="GameController-Graphe" style="stroke:#A80036;stroke-width:1.0;"/><polygon fill="#000000" points="276.1591,136.5548,279.7079,127.7311,273.8437,127.3304,276.1591,136.5548" style="stroke:#000000;stroke-width:1.0;"/><text fill="#000000" font-family="sans-serif" font-size="13" lengthAdjust="spacing" textLength="40" x="285.5" y="136.0669">utilise</text><!--MD5=[f82ffe883dd368be2ba4f8f9a9ca8b88]
link Graphe to Occupant--><path codeLine="77" d="M316.16,213 C345.14,213 381.45,213 409.74,213 " fill="none" id="Graphe-Occupant" style="stroke:#A80036;stroke-width:1.0;"/><polygon fill="#000000" points="333.5,201.5664,342.5451,204.5053,342.5451,198.6275,333.5,201.5664" style="stroke:#000000;stroke-width:1.0;"/><text fill="#000000" font-family="sans-serif" font-size="13" lengthAdjust="spacing" textLength="44" x="347.5" y="206.0669">est sur</text><!--MD5=[0dc0e9fef7777f0d6f6ebedf5bea88bd]
link Colony to Ant--><path codeLine="78" d="M241.09,391.26 C238.37,400.82 235.88,411.2 234.5,421 C230.71,447.85 230.74,455.15 234.5,482 C235.89,491.89 238.51,502.45 241.29,511.89 " fill="none" id="Colony-Ant" style="stroke:#A80036;stroke-width:1.0;"/><polygon fill="#000000" points="239.4917,446.5664,236.5678,455.6164,242.4456,455.6066,239.4917,446.5664" style="stroke:#000000;stroke-width:1.0;"/><text fill="#000000" font-family="sans-serif" font-size="13" lengthAdjust="spacing" textLength="107" x="248.5" y="456.0669">appartient à une</text><!--MD5=[13f47b10aa25078d4f2d5c73b4490dcf]
link Soldier to Queen--><path codeLine="79" d="M150.71,698.11 C149.02,707.36 147.33,718.14 146.5,728 C144.99,745.88 145.91,766.18 147.11,781.37 " fill="none" id="Soldier-Queen" style="stroke:#A80036;stroke-width:1.0;"/><polygon fill="#000000" points="151.716,731.5711,148.3891,740.4808,154.2614,740.7347,151.716,731.5711" style="stroke:#000000;stroke-width:1.0;"/><text fill="#000000" font-family="sans-serif" font-size="13" lengthAdjust="spacing" textLength="64" x="160.5" y="741.0669">donne vie</text><!--MD5=[8556188d988ececf7a364e30b90903be]
link Queen to Worker--><path codeLine="80" d="M185.11,805.5 C217.65,805.5 265.59,805.5 298.77,805.5 " fill="none" id="Queen-Worker" style="stroke:#A80036;stroke-width:1.0;"/><polygon fill="#000000" points="212.5,794.0664,203.4549,791.1275,203.4549,797.0053,212.5,794.0664" style="stroke:#000000;stroke-width:1.0;"/><text fill="#000000" font-family="sans-serif" font-size="13" lengthAdjust="spacing" textLength="64" x="216.5" y="798.5669">donne vie</text><!--MD5=[bca9d2185af3b1d357a8e50bbe8bc4ba]
link Worker to Food--><path codeLine="81" d="M374.05,805.5 C421.84,805.5 503.5,805.5 547.78,805.5 " fill="none" id="Worker-Food" style="stroke:#A80036;stroke-width:1.0;"/><polygon fill="#000000" points="401.5,794.0664,392.4549,791.1275,392.4549,797.0053,401.5,794.0664" style="stroke:#000000;stroke-width:1.0;"/><text fill="#000000" font-family="sans-serif" font-size="13" lengthAdjust="spacing" textLength="124" x="405.5" y="798.5669">ramasse et dépose</text><!--MD5=[9e8e2460ef27050344cb79cd82863737]
link Pheromone to Worker--><path codeLine="82" d="M445.46,482.21 C422.99,548.67 368.88,708.72 346.47,775 " fill="none" id="Pheromone-Worker" style="stroke:#A80036;stroke-width:1.0;"/><polygon fill="#000000" points="410.1014,606.8298,404.4203,614.4571,409.9885,616.3397,410.1014,606.8298" style="stroke:#000000;stroke-width:1.0;"/><text fill="#000000" font-family="sans-serif" font-size="13" lengthAdjust="spacing" textLength="47" x="417.5" y="616.0669">dépose</text><!--MD5=[0d1a06f2e567246264c6e5ad74c2db2b]
link GameController to Display--><path codeLine="83" d="M340.18,77.91 C389.89,100.19 460.41,133.95 518.5,170 C527.59,175.64 537,182.43 545.42,188.9 " fill="none" id="GameController-Display" style="stroke:#A80036;stroke-width:1.0;"/><polygon fill="#000000" points="469.8981,133.9448,463.3399,127.0571,460.5439,132.2274,469.8981,133.9448" style="stroke:#000000;stroke-width:1.0;"/><text fill="#000000" font-family="sans-serif" font-size="13" lengthAdjust="spacing" textLength="98" x="474.5" y="136.0669">affiche la grille</text><!--MD5=[9dc9b1ab3a3460cc1a2fbcf2dcac2e2a]
link GameController to Save--><path codeLine="84" d="M214.74,65.28 C159.51,79.04 84.68,100.95 63.5,123 C48.22,138.91 41.85,163.28 39.23,182.5 " fill="none" id="GameController-Save" style="stroke:#A80036;stroke-width:1.0;"/><polygon fill="#000000" points="64.3421,134.3434,73.4961,131.7637,70.2315,126.8758,64.3421,134.3434" style="stroke:#000000;stroke-width:1.0;"/><text fill="#000000" font-family="sans-serif" font-size="13" lengthAdjust="spacing" textLength="185" x="77.5" y="136.0669">enregistre les déplacements</text><!--MD5=[351e0e14c11893a43e94cd4e0b0b38e3]
link Save to Graphe--><path codeLine="85" d="M68.38,213 C106.47,213 171.71,213 216.86,213 " fill="none" id="Save-Graphe" style="stroke:#A80036;stroke-width:1.0;"/><polygon fill="#000000" points="95.5,201.5664,86.4549,198.6275,86.4549,204.5053,95.5,201.5664" style="stroke:#000000;stroke-width:1.0;"/><text fill="#000000" font-family="sans-serif" font-size="13" lengthAdjust="spacing" textLength="99" x="99.5" y="206.0669">lit les positions</text><!--MD5=[b1a7b01ebe4a3bb891fc04e6a02a07fe]
@startuml
'https://plantuml.com/class-diagram

abstract class Ant extends Occupant
{
    colony
}

class Colony extends Occupant
{
    pheromoneDeposit
    foodWithdrawal
}

class Display
{

}

class Food extends Occupant
{
    quantity
}

class GameController
{
    graphe
    rdm
    evaporationParam
}

class Graphe
{
    tabGrid
    listAnts
    listPheromones
}

class Main
{
}

class Obstacle extends Occupant
{
}

class Occupant
{
    x
    y
}

class Pheromone extends Occupant
{
    quantity
}

class Queen extends Ant
{
}

class Save
{
    fileSave
}

class Soldier extends Ant
{
}

class Worker extends Ant
{
    carried
}

Main - GameController : lance le jeu >
GameController - Graphe : utilise >
Graphe - Occupant : est sur <
Ant -up- Colony : appartient à une >
Queen -up- Soldier : donne vie >
Queen - Worker : donne vie >
Worker - Food : ramasse et dépose >
Worker -up- Pheromone : dépose >
GameController - - Display : affiche la grille >
GameController - - Save : enregistre les déplacements >
Save - Graphe : lit les positions >

@enduml

@startuml

abstract class Ant extends Occupant
{
    colony
}

class Colony extends Occupant
{
    pheromoneDeposit
    foodWithdrawal
}

class Display
{

}

class Food extends Occupant
{
    quantity
}

class GameController
{
    graphe
    rdm
    evaporationParam
}

class Graphe
{
    tabGrid
    listAnts
    listPheromones
}

class Main
{
}

class Obstacle extends Occupant
{
}

class Occupant
{
    x
    y
}

class Pheromone extends Occupant
{
    quantity
}

class Queen extends Ant
{
}

class Save
{
    fileSave
}

class Soldier extends Ant
{
}

class Worker extends Ant
{
    carried
}

Main - GameController : lance le jeu >
GameController - Graphe : utilise >
Graphe - Occupant : est sur <
Ant -up- Colony : appartient à une >
Queen -up- Soldier : donne vie >
Queen - Worker : donne vie >
Worker - Food : ramasse et dépose >
Worker -up- Pheromone : dépose >
GameController - - Display : affiche la grille >
GameController - - Save : enregistre les déplacements >
Save - Graphe : lit les positions >

@enduml

PlantUML version 1.2021.5(Sun Apr 25 13:20:28 CEST 2021)
(GPL source distribution)
Java Runtime: OpenJDK Runtime Environment
JVM: OpenJDK 64-Bit Server VM
Default Encoding: UTF-8
Language: fr
Country: FR
--></g></svg>